<svg width="485" height="273" viewBox="0 0 485 273" fill="none" xmlns="http://www.w3.org/2000/svg">
<path d="M24.3437 43.8182V134H10.7372V43.8182H24.3437ZM47.5885 93.8409V134H34.4223V66.3636H47.06V77.3722H47.8967C49.4526 73.7907 51.8891 70.9138 55.2063 68.7415C58.5529 66.5691 62.7655 65.483 67.8441 65.483C72.453 65.483 76.4895 66.4517 79.9535 68.3892C83.4175 70.2973 86.1036 73.1449 88.0117 76.9318C89.9199 80.7187 90.874 85.401 90.874 90.9787V134H77.7078V92.5639C77.7078 87.6615 76.4308 83.8305 73.8768 81.071C71.3228 78.2822 67.8148 76.8878 63.3527 76.8878C60.2996 76.8878 57.5842 77.5483 55.2063 78.8693C52.8579 80.1903 50.9938 82.1278 49.614 84.6818C48.2636 87.2064 47.5885 90.2595 47.5885 93.8409ZM125.171 135.321C119.711 135.321 114.838 133.927 110.552 131.138C106.295 128.32 102.949 124.312 100.512 119.116C98.1049 113.891 96.9013 107.624 96.9013 100.314C96.9013 93.0043 98.1196 86.7514 100.556 81.5554C103.022 76.3594 106.398 72.3816 110.684 69.6222C114.97 66.8627 119.828 65.483 125.259 65.483C129.457 65.483 132.833 66.1875 135.387 67.5966C137.97 68.9763 139.967 70.5909 141.376 72.4403C142.814 74.2898 143.93 75.919 144.722 77.3281H145.515V43.8182H158.681V134H145.823V123.476H144.722C143.93 124.914 142.785 126.558 141.288 128.408C139.82 130.257 137.794 131.872 135.211 133.251C132.628 134.631 129.281 135.321 125.171 135.321ZM128.077 124.092C131.864 124.092 135.064 123.094 137.677 121.098C140.319 119.072 142.315 116.269 143.666 112.688C145.045 109.106 145.735 104.937 145.735 100.182C145.735 95.4848 145.06 91.375 143.71 87.8523C142.359 84.3295 140.378 81.5848 137.765 79.6179C135.152 77.651 131.923 76.6676 128.077 76.6676C124.114 76.6676 120.812 77.6951 118.17 79.75C115.528 81.8049 113.532 84.6084 112.181 88.1605C110.86 91.7126 110.2 95.7197 110.2 100.182C110.2 104.703 110.875 108.768 112.225 112.379C113.576 115.99 115.572 118.852 118.214 120.966C120.885 123.05 124.173 124.092 128.077 124.092ZM211.638 105.95V66.3636H224.848V134H211.902V122.287H211.198C209.642 125.898 207.146 128.907 203.712 131.314C200.306 133.692 196.064 134.881 190.986 134.881C186.641 134.881 182.796 133.927 179.449 132.018C176.132 130.081 173.519 127.219 171.611 123.432C169.732 119.645 168.793 114.963 168.793 109.385V66.3636H181.959V107.8C181.959 112.409 183.236 116.078 185.79 118.808C188.344 121.538 191.661 122.903 195.742 122.903C198.207 122.903 200.659 122.287 203.095 121.054C205.561 119.821 207.601 117.957 209.216 115.462C210.86 112.966 211.667 109.796 211.638 105.95ZM284.542 82.8764L272.609 84.9901C272.11 83.4635 271.317 82.0104 270.231 80.6307C269.174 79.2509 267.736 78.1207 265.916 77.2401C264.096 76.3594 261.82 75.919 259.09 75.919C255.362 75.919 252.25 76.7557 249.755 78.429C247.26 80.0729 246.012 82.2012 246.012 84.8139C246.012 87.0743 246.849 88.8944 248.522 90.2741C250.195 91.6539 252.896 92.7841 256.624 93.6648L267.369 96.1307C273.592 97.5691 278.231 99.7855 281.284 102.78C284.337 105.774 285.863 109.664 285.863 114.449C285.863 118.5 284.689 122.111 282.34 125.281C280.021 128.422 276.777 130.888 272.609 132.679C268.47 134.47 263.67 135.365 258.21 135.365C250.636 135.365 244.456 133.75 239.671 130.521C234.886 127.263 231.951 122.639 230.864 116.651L243.59 114.713C244.383 118.03 246.012 120.54 248.478 122.243C250.944 123.916 254.159 124.753 258.122 124.753C262.437 124.753 265.886 123.857 268.47 122.067C271.053 120.247 272.345 118.03 272.345 115.418C272.345 113.304 271.552 111.528 269.967 110.089C268.411 108.651 266.018 107.565 262.789 106.831L251.34 104.321C245.029 102.883 240.361 100.593 237.338 97.4517C234.343 94.3106 232.846 90.3329 232.846 85.5185C232.846 81.526 233.962 78.0327 236.193 75.0383C238.424 72.044 241.506 69.7102 245.44 68.0369C249.373 66.3343 253.88 65.483 258.958 65.483C266.268 65.483 272.022 67.0682 276.22 70.2386C280.418 73.3797 283.192 77.5923 284.542 82.8764ZM323.232 66.3636V76.9318H286.287V66.3636H323.232ZM296.195 50.1591H309.361V114.141C309.361 116.695 309.743 118.617 310.506 119.909C311.269 121.171 312.253 122.037 313.456 122.507C314.689 122.947 316.025 123.168 317.463 123.168C318.52 123.168 319.445 123.094 320.237 122.947C321.03 122.801 321.647 122.683 322.087 122.595L324.465 133.472C323.701 133.765 322.615 134.059 321.206 134.352C319.797 134.675 318.036 134.851 315.922 134.881C312.458 134.939 309.229 134.323 306.235 133.031C303.24 131.74 300.818 129.743 298.969 127.043C297.12 124.342 296.195 120.951 296.195 116.871V50.1591ZM329.116 134V66.3636H341.842V77.108H342.546C343.779 73.4678 345.952 70.6056 349.063 68.5213C352.205 66.4077 355.757 65.3508 359.72 65.3508C360.542 65.3508 361.51 65.3802 362.626 65.4389C363.771 65.4976 364.666 65.571 365.312 65.6591V78.2528C364.784 78.1061 363.844 77.9446 362.494 77.7685C361.143 77.563 359.793 77.4602 358.443 77.4602C355.331 77.4602 352.557 78.1207 350.12 79.4418C347.713 80.7334 345.805 82.5388 344.396 84.858C342.987 87.1477 342.282 89.7604 342.282 92.696V134H329.116ZM368.026 134V66.3636H381.192V134H368.026ZM374.675 55.9276C372.385 55.9276 370.418 55.1643 368.774 53.6378C367.16 52.0819 366.353 50.2325 366.353 48.0895C366.353 45.9171 367.16 44.0677 368.774 42.5412C370.418 40.9853 372.385 40.2074 374.675 40.2074C376.965 40.2074 378.917 40.9853 380.532 42.5412C382.175 44.0677 382.997 45.9171 382.997 48.0895C382.997 50.2325 382.175 52.0819 380.532 53.6378C378.917 55.1643 376.965 55.9276 374.675 55.9276ZM409.908 135.497C405.622 135.497 401.747 134.705 398.283 133.119C394.819 131.505 392.074 129.171 390.049 126.118C388.052 123.065 387.054 119.322 387.054 114.889C387.054 111.073 387.788 107.932 389.256 105.466C390.724 103 392.705 101.048 395.201 99.6094C397.696 98.1709 400.485 97.0848 403.567 96.3509C406.649 95.617 409.791 95.0592 412.99 94.6776C417.042 94.2079 420.329 93.8262 422.854 93.5327C425.379 93.2098 427.213 92.696 428.358 91.9915C429.503 91.2869 430.076 90.142 430.076 88.5568V88.2486C430.076 84.4029 428.989 81.4233 426.817 79.3097C424.674 77.196 421.474 76.1392 417.218 76.1392C412.785 76.1392 409.292 77.1226 406.738 79.0895C404.213 81.027 402.466 83.1847 401.497 85.5625L389.124 82.7443C390.592 78.6345 392.735 75.3172 395.553 72.7926C398.4 70.2386 401.674 68.3892 405.372 67.2443C409.071 66.0701 412.961 65.483 417.042 65.483C419.742 65.483 422.604 65.8059 425.628 66.4517C428.681 67.0682 431.529 68.2131 434.171 69.8864C436.842 71.5597 439.029 73.9522 440.732 77.0639C442.435 80.1463 443.286 84.1534 443.286 89.0852V134H430.428V124.753H429.899C429.048 126.455 427.771 128.129 426.069 129.773C424.366 131.417 422.179 132.782 419.507 133.868C416.836 134.954 413.636 135.497 409.908 135.497ZM412.77 124.929C416.41 124.929 419.522 124.21 422.105 122.771C424.718 121.333 426.7 119.454 428.05 117.135C429.43 114.786 430.12 112.277 430.12 109.605V100.886C429.65 101.356 428.74 101.796 427.39 102.207C426.069 102.589 424.557 102.927 422.854 103.22C421.151 103.484 419.493 103.734 417.878 103.969C416.264 104.174 414.913 104.35 413.827 104.497C411.273 104.82 408.939 105.363 406.826 106.126C404.741 106.89 403.068 107.991 401.806 109.429C400.573 110.838 399.956 112.717 399.956 115.065C399.956 118.324 401.16 120.79 403.567 122.463C405.974 124.107 409.042 124.929 412.77 124.929ZM465.309 43.8182V134H452.142V43.8182H465.309ZM16.9502 245.188C12.1102 245.188 8.10618 243.208 4.93818 239.248C1.77018 235.2 0.186177 230.052 0.186177 223.804C0.186177 217.908 1.11018 212.144 2.95818 206.512C4.89418 200.792 7.44618 195.644 10.6142 191.068C13.8702 186.404 17.4342 182.708 21.3062 179.98C25.2662 177.252 29.2262 175.888 33.1862 175.888C37.4102 175.888 40.9742 177.032 43.8782 179.32C44.3182 179.672 44.5822 179.98 44.6702 180.244C44.7582 180.42 44.7142 180.86 44.5382 181.564L40.9742 198.856C40.7102 200.088 40.1382 200.704 39.2582 200.704C38.2902 200.704 37.7182 200.044 37.5422 198.724L36.8822 189.352C36.6182 185.304 36.0022 182.664 35.0342 181.432C34.1542 180.2 32.8342 179.584 31.0742 179.584C28.6102 179.584 26.1022 180.816 23.5502 183.28C20.9982 185.656 18.6222 188.912 16.4222 193.048C14.3102 197.096 12.5942 201.628 11.2742 206.644C10.0422 211.572 9.42618 216.588 9.42618 221.692C9.42618 232.78 13.0342 238.324 20.2502 238.324C23.6822 238.324 26.7622 236.74 29.4902 233.572C32.3062 230.404 34.9022 225.476 37.2782 218.788C37.5422 217.908 38.1582 217.468 39.1262 217.468C39.6542 217.468 39.9622 217.688 40.0502 218.128C40.1382 218.48 40.0502 219.228 39.7862 220.372C38.9062 225.212 37.3222 229.48 35.0342 233.176C32.7462 236.872 30.0182 239.82 26.8502 242.02C23.7702 244.132 20.4702 245.188 16.9502 245.188ZM62.1715 245.188C56.7155 245.188 52.4035 242.944 49.2355 238.456C46.0675 233.88 44.4835 227.72 44.4835 219.976C44.4835 214.256 45.4075 208.756 47.2555 203.476C49.1035 198.196 51.5235 193.488 54.5155 189.352C57.5955 185.216 60.9835 181.96 64.6795 179.584C68.4635 177.12 72.2475 175.888 76.0315 175.888C81.4875 175.888 85.7995 178.132 88.9675 182.62C92.1355 187.108 93.7195 193.268 93.7195 201.1C93.7195 206.82 92.7955 212.32 90.9475 217.6C89.0995 222.88 86.6355 227.588 83.5555 231.724C80.5635 235.86 77.1755 239.16 73.3915 241.624C69.6955 244 65.9555 245.188 62.1715 245.188ZM61.9075 242.02C64.7235 242.02 67.4515 240.656 70.0915 237.928C72.8195 235.2 75.2835 231.592 77.4835 227.104C79.6835 222.616 81.4435 217.644 82.7635 212.188C84.0835 206.644 84.7435 201.1 84.7435 195.556C84.7435 184.556 81.8835 179.056 76.1635 179.056C73.4355 179.056 70.7075 180.42 67.9795 183.148C65.2515 185.788 62.7875 189.352 60.5875 193.84C58.4755 198.328 56.7595 203.344 55.4395 208.888C54.1195 214.344 53.4595 219.844 53.4595 225.388C53.4595 236.476 56.2755 242.02 61.9075 242.02ZM100.856 242.284L113.396 189.616C113.836 187.68 113.88 186.184 113.528 185.128C113.264 183.984 112.472 183.412 111.152 183.412C109.568 183.412 107.808 184.6 105.872 186.976C104.024 189.264 101.912 193.664 99.5358 200.176C99.1838 201.32 98.5678 201.892 97.6878 201.892C96.3678 201.892 96.0158 201.1 96.6318 199.516C98.5678 193.444 100.592 188.692 102.704 185.26C104.904 181.828 107.104 179.408 109.304 178C111.504 176.592 113.528 175.888 115.376 175.888C118.28 175.888 120.348 176.988 121.58 179.188C122.812 181.3 122.856 184.82 121.712 189.748L118.412 204.004C118.324 204.62 118.456 204.972 118.808 205.06C119.16 205.148 119.468 204.928 119.732 204.4C123.164 197.272 126.464 191.64 129.632 187.504C132.8 183.28 135.792 180.288 138.608 178.528C141.424 176.768 143.976 175.888 146.264 175.888C149.52 175.888 151.896 177.208 153.392 179.848C154.888 182.488 154.888 186.536 153.392 191.992L143.36 230.272C142.744 232.736 142.7 234.584 143.228 235.816C143.756 237.048 144.724 237.664 146.132 237.664C147.892 237.664 149.608 236.52 151.28 234.232C153.04 231.856 154.844 227.412 156.692 220.9C156.956 219.932 157.528 219.448 158.408 219.448C159.112 219.448 159.508 219.712 159.596 220.24C159.772 220.768 159.772 221.384 159.596 222.088C157.924 228.072 156.12 232.78 154.184 236.212C152.248 239.556 150.268 241.888 148.244 243.208C146.308 244.528 144.328 245.188 142.304 245.188C139.136 245.188 136.76 243.868 135.176 241.228C133.592 238.588 133.504 234.496 134.912 228.952L145.076 190.672C146.044 187.24 146.176 184.864 145.472 183.544C144.856 182.224 143.932 181.564 142.7 181.564C140.764 181.564 138.564 182.796 136.1 185.26C133.636 187.636 131.128 190.936 128.576 195.16C126.024 199.296 123.516 204.004 121.052 209.284C118.588 214.564 116.344 220.064 114.32 225.784C112.384 231.504 110.8 237.092 109.568 242.548C109.304 243.516 108.688 244 107.72 244H102.308C101.076 244 100.592 243.428 100.856 242.284ZM175.368 245.188C172.464 245.188 169.384 244.748 166.128 243.868C162.96 242.988 160.54 241.888 158.868 240.568C158.252 240.04 157.988 239.248 158.076 238.192L160.98 220.9C161.156 219.756 161.684 219.184 162.564 219.184C163.532 219.184 164.016 219.8 164.016 221.032L164.28 227.368C164.456 232.384 165.644 236.08 167.844 238.456C170.132 240.744 172.904 241.888 176.16 241.888C178.976 241.888 181.396 241.008 183.42 239.248C185.444 237.4 186.456 234.716 186.456 231.196C186.456 229.172 186.148 227.324 185.532 225.652C184.916 223.892 183.948 222.044 182.628 220.108C181.308 218.084 179.504 215.664 177.216 212.848C174.224 208.976 171.98 205.676 170.484 202.948C169.076 200.132 168.372 197.228 168.372 194.236C168.372 188.692 170.088 184.248 173.52 180.904C177.04 177.56 181.484 175.888 186.852 175.888C189.228 175.888 191.516 176.24 193.716 176.944C196.004 177.648 197.896 178.704 199.392 180.112C200.184 180.728 200.448 181.52 200.184 182.488L196.488 200.176C196.224 201.32 195.696 201.892 194.904 201.892C194.112 201.892 193.628 201.276 193.452 200.044L193.056 193.708C192.704 188.428 192 184.644 190.944 182.356C189.976 180.068 187.908 178.924 184.74 178.924C181.924 178.924 179.636 179.892 177.876 181.828C176.116 183.764 175.236 186.096 175.236 188.824C175.236 191.728 176.028 194.412 177.612 196.876C179.196 199.252 181.352 202.288 184.08 205.984C187.688 210.736 190.108 214.52 191.34 217.336C192.66 220.152 193.32 223.012 193.32 225.916C193.32 229.612 192.484 232.912 190.812 235.816C189.228 238.72 187.072 241.008 184.344 242.68C181.616 244.352 178.624 245.188 175.368 245.188ZM212.428 245.188C209.172 245.188 206.928 243.736 205.696 240.832C204.552 237.84 204.64 233.924 205.96 229.084L216.388 190.804C217.092 188.252 217.268 186.272 216.916 184.864C216.564 183.456 215.772 182.752 214.54 182.752C212.516 182.752 210.448 184.292 208.336 187.372C206.312 190.452 204.552 194.72 203.056 200.176C202.792 201.144 202.22 201.628 201.34 201.628C200.108 201.628 199.712 200.748 200.152 198.988C202.176 191.596 204.816 185.92 208.072 181.96C211.416 177.912 215.068 175.888 219.028 175.888C222.196 175.888 224.308 177.34 225.364 180.244C226.42 183.148 226.244 187.108 224.836 192.124L214.276 230.404C212.604 236.476 213.176 239.512 215.992 239.512C217.752 239.512 219.776 238.324 222.064 235.948C224.352 233.572 226.728 230.316 229.192 226.18C231.744 222.044 234.252 217.336 236.716 212.056C239.18 206.776 241.424 201.232 243.448 195.424C245.472 189.616 247.144 183.852 248.464 178.132C248.728 177.164 249.344 176.68 250.312 176.68H255.592C256.824 176.68 257.308 177.252 257.044 178.396L244.636 231.46C243.668 235.596 244.416 237.664 246.88 237.664C250.576 237.664 254.448 232.076 258.496 220.9C258.848 219.756 259.464 219.184 260.344 219.184C260.872 219.184 261.224 219.404 261.4 219.844C261.664 220.284 261.664 220.856 261.4 221.56C259.024 229.04 256.208 234.848 252.952 238.984C249.696 243.12 246.264 245.188 242.656 245.188C236.32 245.188 234.208 240.568 236.32 231.328L239.752 216.676C239.928 216.06 239.796 215.708 239.356 215.62C239.004 215.532 238.696 215.752 238.432 216.28C233.328 226.84 228.62 234.32 224.308 238.72C219.996 243.032 216.036 245.188 212.428 245.188ZM271.407 245.32C268.503 245.32 266.435 244.264 265.203 242.152C263.971 239.952 263.927 236.388 265.071 231.46L281.835 159.52C282.275 157.936 282.275 156.836 281.835 156.22C281.483 155.604 280.691 155.252 279.459 155.164L275.499 154.768C274.179 154.68 273.607 154.108 273.783 153.052C273.959 152.26 274.575 151.776 275.631 151.6C278.799 151.072 281.615 150.456 284.079 149.752C286.543 148.96 288.523 147.948 290.019 146.716C290.723 146.188 291.383 145.924 291.999 145.924C293.055 145.924 293.451 146.584 293.187 147.904L273.651 231.592C273.211 233.528 273.123 235.068 273.387 236.212C273.739 237.268 274.575 237.796 275.895 237.796C277.479 237.796 279.195 236.652 281.043 234.364C282.979 231.988 285.135 227.544 287.511 221.032C287.863 219.888 288.479 219.316 289.359 219.316C290.679 219.316 291.031 220.108 290.415 221.692C288.567 227.676 286.499 232.428 284.211 235.948C282.011 239.38 279.811 241.8 277.611 243.208C275.411 244.616 273.343 245.32 271.407 245.32ZM304.174 245.188C301.182 245.188 298.85 244 297.178 241.624C295.506 239.248 295.242 235.42 296.386 230.14L307.342 182.356C307.606 181.036 307.078 180.376 305.758 180.376H300.742C299.51 180.376 298.894 179.804 298.894 178.66C298.894 178.044 299.114 177.56 299.554 177.208C299.994 176.856 300.522 176.68 301.138 176.68H305.89C307.914 176.68 309.102 175.756 309.454 173.908L312.622 159.784C312.886 158.816 313.502 158.332 314.47 158.332H319.882C321.114 158.332 321.598 158.904 321.334 160.048L318.034 174.7C317.77 176.02 318.298 176.68 319.618 176.68H327.142C328.638 176.68 329.386 177.252 329.386 178.396C329.386 179.716 328.462 180.376 326.614 180.376H319.486C317.55 180.376 316.362 181.3 315.922 183.148L304.834 231.46C304.394 233.396 304.438 234.936 304.966 236.08C305.582 237.136 306.594 237.664 308.002 237.664C310.026 237.664 311.874 236.52 313.546 234.232C315.306 231.944 317.154 227.588 319.09 221.164C319.442 220.02 320.014 219.448 320.806 219.448C321.422 219.448 321.818 219.712 321.994 220.24C322.17 220.768 322.038 221.736 321.598 223.144C319.926 229.128 318.078 233.704 316.054 236.872C314.118 240.04 312.138 242.24 310.114 243.472C308.09 244.616 306.11 245.188 304.174 245.188ZM350.963 164.14C349.291 164.14 347.883 163.568 346.739 162.424C345.683 161.192 345.155 159.74 345.155 158.068C345.155 155.692 345.859 153.8 347.267 152.392C348.763 150.984 350.435 150.28 352.283 150.28C354.043 150.28 355.495 150.852 356.639 151.996C357.871 153.052 358.487 154.46 358.487 156.22C358.487 158.684 357.739 160.62 356.243 162.028C354.747 163.436 352.987 164.14 350.963 164.14ZM340.139 245.32C337.235 245.32 335.167 244.264 333.935 242.152C332.703 239.952 332.659 236.388 333.803 231.46L343.571 189.616C344.011 187.68 344.055 186.184 343.703 185.128C343.439 183.984 342.647 183.412 341.327 183.412C339.743 183.412 337.983 184.6 336.047 186.976C334.199 189.264 332.087 193.664 329.711 200.176C329.359 201.32 328.743 201.892 327.863 201.892C326.543 201.892 326.191 201.1 326.807 199.516C328.743 193.444 330.767 188.692 332.879 185.26C335.079 181.828 337.279 179.408 339.479 178C341.679 176.592 343.703 175.888 345.551 175.888C348.631 175.888 350.787 176.988 352.019 179.188C353.251 181.3 353.295 184.82 352.151 189.748L342.383 231.592C341.943 233.528 341.855 235.068 342.119 236.212C342.471 237.268 343.307 237.796 344.627 237.796C346.211 237.796 347.927 236.652 349.775 234.364C351.711 231.988 353.867 227.544 356.243 221.032C356.595 219.888 357.211 219.316 358.091 219.316C359.411 219.316 359.763 220.108 359.147 221.692C357.299 227.676 355.231 232.428 352.943 235.948C350.743 239.38 348.543 241.8 346.343 243.208C344.143 244.616 342.075 245.32 340.139 245.32ZM366.418 242.284L378.958 189.616C379.398 187.68 379.442 186.184 379.09 185.128C378.826 183.984 378.034 183.412 376.714 183.412C375.13 183.412 373.37 184.6 371.434 186.976C369.586 189.264 367.474 193.664 365.098 200.176C364.746 201.32 364.13 201.892 363.25 201.892C361.93 201.892 361.578 201.1 362.194 199.516C364.13 193.444 366.154 188.692 368.266 185.26C370.466 181.828 372.666 179.408 374.866 178C377.066 176.592 379.09 175.888 380.938 175.888C383.842 175.888 385.91 176.988 387.142 179.188C388.374 181.3 388.418 184.82 387.274 189.748L383.974 204.004C383.886 204.62 384.018 204.972 384.37 205.06C384.722 205.148 385.03 204.928 385.294 204.4C388.726 197.272 392.026 191.64 395.194 187.504C398.362 183.28 401.354 180.288 404.17 178.528C406.986 176.768 409.538 175.888 411.826 175.888C415.082 175.888 417.458 177.208 418.954 179.848C420.45 182.488 420.45 186.536 418.954 191.992L408.922 230.272C408.306 232.736 408.262 234.584 408.79 235.816C409.318 237.048 410.286 237.664 411.694 237.664C413.454 237.664 415.17 236.52 416.842 234.232C418.602 231.856 420.406 227.412 422.254 220.9C422.518 219.932 423.09 219.448 423.97 219.448C424.674 219.448 425.07 219.712 425.158 220.24C425.334 220.768 425.334 221.384 425.158 222.088C423.486 228.072 421.682 232.78 419.746 236.212C417.81 239.556 415.83 241.888 413.806 243.208C411.87 244.528 409.89 245.188 407.866 245.188C404.698 245.188 402.322 243.868 400.738 241.228C399.154 238.588 399.066 234.496 400.474 228.952L410.638 190.672C411.606 187.24 411.738 184.864 411.034 183.544C410.418 182.224 409.494 181.564 408.262 181.564C406.326 181.564 404.126 182.796 401.662 185.26C399.198 187.636 396.69 190.936 394.138 195.16C391.586 199.296 389.078 204.004 386.614 209.284C384.15 214.564 381.906 220.064 379.882 225.784C377.946 231.504 376.362 237.092 375.13 242.548C374.866 243.516 374.25 244 373.282 244H367.87C366.638 244 366.154 243.428 366.418 242.284ZM436.089 272.512C429.137 272.512 423.857 271.236 420.249 268.684C416.641 266.132 414.837 263.096 414.837 259.576C414.837 256.496 416.069 253.46 418.533 250.468C420.909 247.564 425.353 244.22 431.865 240.436C432.833 239.908 433.361 239.336 433.449 238.72C433.625 238.016 433.229 237.356 432.261 236.74C429.797 235.156 428.301 233.308 427.773 231.196C427.333 229.084 427.905 227.588 429.489 226.708L439.521 220.9C440.401 220.46 440.841 219.932 440.841 219.316C440.929 218.612 440.489 217.996 439.521 217.468C437.145 216.06 435.341 214.08 434.109 211.528C432.965 208.888 432.393 206.028 432.393 202.948C432.393 198.196 433.537 193.796 435.825 189.748C438.201 185.612 441.325 182.268 445.197 179.716C449.157 177.164 453.557 175.888 458.397 175.888C460.421 175.888 462.137 176.152 463.545 176.68C464.601 177.032 465.393 176.68 465.921 175.624C467.417 172.368 469.309 169.816 471.597 167.968C473.973 166.032 476.437 165.064 478.989 165.064C480.837 165.064 482.245 165.548 483.213 166.516C484.269 167.484 484.797 168.804 484.797 170.476C484.797 172.148 484.313 173.512 483.345 174.568C482.377 175.624 481.145 176.152 479.649 176.152C478.505 176.152 477.625 175.932 477.009 175.492C476.481 175.052 475.997 174.612 475.557 174.172C475.117 173.732 474.413 173.512 473.445 173.512C471.509 173.512 469.969 174.612 468.825 176.812C468.473 177.604 468.385 178.352 468.561 179.056C468.737 179.672 469.089 180.332 469.617 181.036C471.905 184.028 473.049 187.812 473.049 192.388C473.049 196.524 472.125 200.484 470.277 204.268C468.517 207.964 466.053 211.132 462.885 213.772C459.805 216.324 456.241 218.04 452.193 218.92C450.609 219.272 449.157 219.712 447.837 220.24C446.605 220.68 445.021 221.516 443.085 222.748L437.805 225.916C436.485 226.708 436.133 227.72 436.749 228.952C437.365 230.096 439.081 231.196 441.897 232.252L453.249 236.476C458.177 238.236 461.565 240.392 463.413 242.944C465.349 245.496 466.317 248.488 466.317 251.92C466.317 256.144 464.909 259.796 462.093 262.876C459.365 265.956 455.713 268.332 451.137 270.004C446.561 271.676 441.545 272.512 436.089 272.512ZM441.237 205.324C441.237 209.372 441.809 212.32 442.953 214.168C444.185 215.928 445.901 216.808 448.101 216.808C450.917 216.808 453.513 215.532 455.889 212.98C458.353 210.34 460.333 206.996 461.829 202.948C463.325 198.812 464.073 194.544 464.073 190.144C464.073 185.744 463.501 182.752 462.357 181.168C461.213 179.496 459.497 178.66 457.209 178.66C454.481 178.66 451.885 179.98 449.421 182.62C446.957 185.172 444.977 188.472 443.481 192.52C441.985 196.568 441.237 200.836 441.237 205.324ZM437.541 269.212C440.973 269.212 444.185 268.64 447.177 267.496C450.169 266.352 452.589 264.724 454.437 262.612C456.373 260.5 457.341 257.992 457.341 255.088C457.341 252.184 456.593 249.764 455.097 247.828C453.689 245.98 450.873 244.264 446.649 242.68L444.141 241.756C442.557 241.14 440.973 240.92 439.389 241.096C437.805 241.272 436.309 241.712 434.901 242.416C430.149 245.056 426.937 247.52 425.265 249.808C423.593 252.096 422.757 254.604 422.757 257.332C422.757 260.588 423.945 263.36 426.321 265.648C428.697 268.024 432.437 269.212 437.541 269.212Z" fill="#101820"/>
<path d="M227.002 7.17017C230.721 3.83167 236.468 3.9425 240.051 7.53249C243.633 11.1225 243.756 16.8419 240.425 20.5723L227 34.0179L213.576 20.5723C210.244 16.8419 210.368 11.1134 213.949 7.53249C217.534 3.94749 223.272 3.82671 227.002 7.17017Z" fill="#0044FF"/>
</svg>
