
  <svg
    width="85"
    height="25"
    viewBox="0 0 85 25"
    fill="none"
    xmlns="http://www.w3.org/2000/svg"
  >
    <path
      d="M0 0H8.89578C12.2486 0 14.6766 0.689023 16.1756 2.06502C17.6747 3.44306 18.4252 5.4076 18.4252 7.96272C18.4252 10.5178 17.6706 12.5665 16.1592 13.9753C14.6479 15.3861 12.2384 16.0916 8.93064 16.0916H6.13148V23.7877H0V0ZM12.6259 8.02834C12.6259 6.962 12.3532 6.19095 11.8098 5.71315C11.2643 5.23534 10.3046 4.99747 8.92859 4.99747H6.12943V11.0941H8.92859C10.3271 11.0941 11.293 10.8398 11.8262 10.3271C12.3593 9.81652 12.6259 9.04957 12.6259 8.02834Z"
      fill="#101820"
    />
    <path
      d="M17.8245 8.58307e-05H27.3867C30.6739 8.58307e-05 33.067 0.672703 34.5661 2.01589C36.0651 3.35907 36.8156 5.18621 36.8156 7.49731C36.8156 10.6082 35.5935 12.8618 33.1511 14.2604L38.1158 23.7898H31.5188L27.52 15.5605H23.8227V23.7898H17.8265V8.58307e-05H17.8245ZM30.7518 7.76184C30.7518 6.76317 30.4688 6.01878 29.9029 5.52867C29.3369 5.04061 28.3546 4.79659 26.954 4.79659H23.8227V10.8276H27.0545C28.4305 10.8276 29.3923 10.5733 29.9357 10.0606C30.4791 9.55002 30.7518 8.78307 30.7518 7.76184Z"
      fill="#101820"
    />
    <path
      d="M36.6475 8.58307e-05H42.2109L51.0062 13.8605V8.58307e-05H56.9695V23.7878H51.5066L42.6108 9.82891V23.7878H36.6475V8.58307e-05Z"
      fill="#101820"
    />
    <path
      d="M62.9 5.49791H55.938V8.58307e-05H76.2272V5.49791H69.2653V23.7878H62.902V5.49791H62.9Z"
      fill="#101820"
    />
    <path
      d="M76.2273 10.7765C77.6792 14.2339 81.0423 16.6844 85 16.8034L80.3799 24.1981C76.4057 24.1981 72.9873 21.8419 71.4329 18.4521L76.2294 10.7765H76.2273Z"
      fill="#0044FF"
    />
  </svg>
