<svg width="129" height="30" viewBox="0 0 129 30" fill="none" xmlns="http://www.w3.org/2000/svg">
<path fill-rule="evenodd" clip-rule="evenodd" d="M128.249 1.56865C127.781 0.887488 126.793 0.836231 126.681 0.833252H75.0727C73.4479 0.833252 72.173 1.29441 71.29 2.20161C70.3825 3.12989 70.1327 4.28427 70.0632 4.90218H58.7339C58.6675 4.28427 58.4169 3.12989 57.5071 2.20161C56.621 1.29441 55.3491 0.833252 53.7213 0.833252H2.11264C2.00111 0.836231 1.01256 0.887488 0.545369 1.56865C0.430863 1.73747 0.319336 1.98764 0.319336 2.3252C0.319336 2.51503 0.352488 2.73205 0.439877 2.97925C0.451946 3.00934 0.464017 3.03951 0.482121 3.06961L1.87156 5.24578C1.95291 5.3693 2.29048 5.74911 3.3755 5.76118C3.469 5.7883 3.77937 5.89676 3.97531 6.21928C3.98738 6.23738 5.19295 8.38636 5.19295 8.38636C5.19447 8.38934 5.19677 8.39315 5.19898 8.39689C5.20127 8.40064 5.20349 8.40438 5.20501 8.40744C5.23519 8.45564 5.98266 9.59192 7.19128 9.60399H7.20931C7.90254 9.60399 8.22207 10.3334 8.23406 10.3635C8.23559 10.3665 8.23704 10.3696 8.23857 10.3728C8.2401 10.3762 8.24163 10.3796 8.24316 10.3831C8.24614 10.3899 8.24919 10.3967 8.25217 10.4027C8.25217 10.4027 9.18954 12.1297 9.21666 12.1779C9.24079 12.2352 9.27693 12.3015 9.33422 12.3799C9.36432 12.4221 9.39747 12.4612 9.43368 12.4975C9.76521 12.8531 10.5247 13.3594 12.2548 13.8959C12.2548 13.8959 14.5243 14.5651 17.5353 15.4512H17.5383C21.3213 16.5678 26.2796 18.0283 29.4013 18.9478L29.4085 18.9499C31.0857 19.4439 32.2308 19.7813 32.3759 19.8244C32.7923 19.9752 33.5065 20.3549 33.6753 20.7437L34.1184 21.7655C34.1909 21.9252 34.896 23.3117 38.1693 24.2731L43.6036 25.768C48.7209 27.1756 55.6532 29.0835 56.003 29.1799C56.2352 29.2643 58.3841 29.9664 60.057 28.2968L64.1346 24.2189C64.1445 24.2091 64.1591 24.1917 64.1721 24.1757C64.1782 24.1699 64.2148 24.1388 64.2851 24.1224C64.3279 24.1194 64.3638 24.1164 64.3882 24.1134C64.4012 24.1134 64.4165 24.1151 64.4348 24.1172C64.4509 24.119 64.4692 24.121 64.4906 24.1224C64.5547 24.1348 64.5884 24.1594 64.6006 24.1711C64.6136 24.1882 64.6304 24.2081 64.6411 24.2189L68.7187 28.2968C70.3916 29.9695 72.5405 29.2643 72.7727 29.1799C72.791 29.1739 79.9341 27.2087 85.1721 25.768C88.2048 24.9332 90.6011 24.2731 90.6011 24.2731C90.8631 24.1947 91.1068 24.1164 91.3359 24.035L91.4177 24.0079C94.0004 23.0736 94.5939 21.9102 94.6573 21.7715C94.6573 21.7655 95.1034 20.7437 95.1034 20.7437C95.2722 20.3549 95.9865 19.9752 96.4028 19.8244C96.4234 19.8184 105.288 17.2053 111.238 15.4512H111.241C114.249 14.562 116.515 13.8959 116.515 13.8959C118.248 13.3594 119.008 12.8501 119.342 12.4975C119.381 12.4612 119.414 12.4191 119.445 12.3768C119.505 12.2985 119.541 12.2322 119.562 12.1779C119.586 12.1297 120.526 10.4027 120.526 10.4027C120.529 10.3968 120.533 10.3903 120.536 10.3836C120.539 10.3767 120.542 10.3697 120.545 10.3635C120.557 10.3334 120.876 9.60399 121.57 9.60399H121.587C122.796 9.59192 123.544 8.45564 123.574 8.40744C123.577 8.40438 123.579 8.40064 123.581 8.39689C123.583 8.39308 123.586 8.38934 123.589 8.38636C123.589 8.38636 124.794 6.23738 124.806 6.21928C125 5.89676 125.313 5.7883 125.406 5.76118C126.492 5.74605 126.829 5.3693 126.907 5.25174C126.91 5.24578 128.3 3.06961 128.3 3.06961C128.318 3.04249 128.333 3.0124 128.342 2.97925C128.43 2.73205 128.462 2.51503 128.462 2.3252C128.462 1.98764 128.354 1.73747 128.236 1.56865H128.249ZM64.6021 24.1732L64.6052 24.1767L64.6044 24.1753L64.6021 24.1732ZM71.911 2.79232C72.6283 2.06296 73.6924 1.69225 75.0727 1.69225H98.8197C97.4906 2.68683 96.6587 4.2722 96.3631 4.90218H70.9317C71.0005 4.38679 71.2205 3.49762 71.911 2.79538V2.79232ZM90.9296 10.4268V9.38698L93.018 9.66732C92.7377 10.0109 92.4512 10.3515 92.1617 10.683L90.9296 10.4298V10.4268ZM91.5017 11.4214C91.3153 11.6294 91.122 11.8343 90.9296 12.0363V11.3039L91.5017 11.4214ZM90.9296 8.51591V7.54845L94.4648 7.78655C94.1967 8.15727 93.9225 8.52194 93.6421 8.88067L92.3626 8.71017C91.7286 8.62576 91.2389 8.56052 90.9296 8.51897V8.51591ZM90.9296 6.68647V5.75812H95.8574C95.5916 6.16802 95.3234 6.56891 95.0461 6.96369L90.9265 6.68647H90.9296ZM53.7213 1.69225C55.1016 1.69225 56.1657 2.06296 56.883 2.79232C57.5736 3.49464 57.7936 4.38373 57.8623 4.89913H32.4302C32.1353 4.26923 31.3034 2.68683 29.9741 1.68927H53.7213V1.69225ZM36.6323 10.683C36.3428 10.3515 36.0563 10.0109 35.776 9.66732L37.8645 9.38698V10.4268L36.6323 10.68V10.683ZM37.8645 11.3069V12.0393C37.672 11.8374 37.4818 11.6324 37.2923 11.4244L37.8645 11.3069ZM34.3292 7.78953C34.5996 8.15925 34.8731 8.52286 35.1496 8.88052C35.6217 8.81765 36.0502 8.76058 36.4284 8.71032L36.4307 8.71002C37.0647 8.62561 37.5543 8.56045 37.8614 8.51897V7.55143L34.3292 7.78953ZM32.9336 5.76118C33.2017 6.16795 33.4706 6.57174 33.7448 6.96652L37.8614 6.68945V5.76118H32.9336ZM3.43279 4.90218C2.84208 4.90218 2.61902 4.77858 2.57082 4.74543C2.41705 4.50427 1.42545 2.94907 1.2386 2.65971C1.19941 2.53619 1.17535 2.42466 1.17535 2.32818C1.17535 2.22269 1.19941 2.12926 1.25067 2.05692C1.43752 1.78269 1.962 1.70126 2.1338 1.69225H27.5689C29.5311 1.69225 30.9054 3.8322 31.4692 4.90218H3.43279ZM7.20335 8.745C6.49805 8.73897 5.98869 8.03069 5.93445 7.94933C5.91635 7.91916 4.71979 5.7883 4.71979 5.7883C4.71979 5.78639 4.71865 5.78455 4.71705 5.78195C4.71605 5.78035 4.71491 5.77852 4.71376 5.77623C4.7107 5.77019 4.70773 5.76416 4.70169 5.76118H31.9153C32.1865 6.19216 32.4668 6.61711 32.7502 7.03305L7.20335 8.745ZM10.0696 11.9097C10.0214 11.8614 10.0064 11.8313 10.0064 11.8313L10.0154 11.8555L10.0057 11.8323C9.99895 11.8163 9.99223 11.8002 9.98826 11.7922C9.98826 11.7922 9.03584 10.038 9.01774 10.0079C8.98459 9.93552 8.88513 9.73057 8.70432 9.50752L33.3163 7.85889C33.5936 8.25069 33.877 8.63653 34.1665 9.01626C31.4623 9.37728 27.7521 9.87296 24.1221 10.358L24.0923 10.3619L24.083 10.3631C17.7266 11.2124 11.6273 12.0273 11.6158 12.0273C10.9768 12.0905 10.2535 12.0332 10.0666 11.9097H10.0696ZM12.5079 13.0731C12.2728 13.0008 12.0619 12.9284 11.866 12.8591L34.7784 9.79993C35.0709 10.1676 35.3658 10.5293 35.6675 10.8819L17.683 14.5982L12.5079 13.0731ZM24.7176 16.6718L19.4311 15.1136L36.3123 11.6264C36.7553 12.1237 37.2075 12.6059 37.6689 13.0761C35.4865 13.7724 26.7732 16.5542 26.7371 16.5663C26.3362 16.6507 25.2391 16.8256 24.7176 16.6718ZM32.3584 18.9233L27.0626 17.3621L38.3534 13.7573C39.1188 14.5017 39.9079 15.207 40.7222 15.8761C37.6536 17.3138 34.6095 18.7394 34.5859 18.7484C34.417 18.8027 33.1964 19.1674 32.3584 18.9202V18.9233ZM54.146 21.9976C53.8091 21.9011 53.4684 21.7986 53.1216 21.6871C52.166 21.3827 51.2287 21.0391 50.3067 20.6563C52.8596 17.9739 56.1932 14.4746 56.8769 13.7573H58.9631L54.1491 21.9976H54.146ZM59.9546 13.7573H61.5641L61.2639 14.8682C60.704 16.9406 59.7354 20.5244 59.0624 23.0223C57.8539 22.8595 56.485 22.6124 55.0054 22.2296C55.5302 21.3311 56.6592 19.3987 57.7187 17.5843L57.7447 17.5403C58.7194 15.8718 59.6307 14.3112 59.9546 13.7573ZM49.4626 20.2916C48.4168 19.8244 47.3917 19.3091 46.3941 18.7425L53.3569 13.7573H55.6898L49.4657 20.2916H49.4626ZM45.5805 18.2663C44.6188 17.6875 43.6815 17.0606 42.7717 16.3885C42.6296 16.283 42.4852 16.1745 42.3439 16.066L47.2771 13.7573H51.8795C50.4961 14.7489 47.9921 16.5422 45.5805 18.2663ZM39.6008 13.7573C40.2486 14.3537 40.9078 14.9261 41.5861 15.4713L43.4233 14.6117L45.249 13.7573H39.6008ZM37.6811 23.2092C35.4552 22.4105 34.9281 21.4546 34.9052 21.4136C34.896 21.3925 34.4652 20.4001 34.4652 20.4001C34.3598 20.162 34.1879 19.9541 33.9854 19.7732C34.4827 19.6858 34.8479 19.5682 34.8777 19.5562L34.9227 19.5381L41.4693 16.4729C41.7374 16.6839 42.0093 16.8888 42.2836 17.0908C43.1093 17.6996 43.9557 18.2722 44.8212 18.8057C41.9062 20.8944 39.3204 22.745 39.2991 22.7601C38.8293 23.0193 38.0035 23.3357 37.6781 23.2062L37.6811 23.2092ZM43.8358 24.9392L39.3449 23.7035C39.5213 23.6235 39.6581 23.549 39.7284 23.5106L39.7391 23.5046L39.7467 23.5001C39.7589 23.4932 39.7688 23.4874 39.7788 23.4774L45.6256 19.291C46.6683 19.8968 47.7385 20.4514 48.8324 20.9517L46.6232 23.2694L46.6087 23.2846C46.1679 23.7909 44.7188 25.1834 43.8297 24.9392H43.8358ZM50.4182 26.7506L45.4507 25.3823C46.3643 24.8548 47.1114 24.0229 47.2565 23.8542C47.2595 23.8511 48.287 22.7721 49.6734 21.3164C50.7284 21.7655 51.8047 22.1664 52.9016 22.513C53.1789 22.6003 53.4532 22.6848 53.7243 22.7631C52.784 24.5143 51.286 26.6753 50.4213 26.7476L50.4182 26.7506ZM56.2322 28.3511L51.6175 27.0822C52.1362 26.6693 52.6969 26.0122 53.3118 25.102C53.887 24.2551 54.3484 23.4172 54.5715 23.0012C56.1329 23.4172 57.5705 23.6884 58.8393 23.8632C58.5284 25.0176 58.3207 25.7861 58.3176 25.7922C57.6851 27.6458 57.1878 28.55 56.2352 28.3511H56.2322ZM59.4512 27.688C58.9807 28.1582 58.4597 28.3842 57.9769 28.4776C58.5338 27.8099 58.8676 26.8299 59.1296 26.0621L59.1311 26.0574C59.1311 26.0537 59.1327 26.0499 59.1342 26.0461C59.135 26.0439 59.1357 26.0416 59.1372 26.0394C59.138 26.0363 59.1395 26.0333 59.1403 26.0303L59.6979 23.9687C61.0516 24.1194 62.1699 24.1616 62.9773 24.1616L59.4512 27.688ZM63.9627 23.2785C63.3119 23.3086 61.8804 23.3328 59.9241 23.1248L62.4533 13.7573H63.9627V23.2785ZM38.7239 12.8983V5.76118H90.0671V12.8983H38.7239ZM69.8309 13.7573H71.9141C72.5977 14.4746 75.9314 17.9739 78.4843 20.6563C77.5622 21.0391 76.625 21.3827 75.6693 21.6871C75.3225 21.7986 74.9788 21.9011 74.645 21.9976L69.8309 13.7573ZM73.7825 22.2296C72.3029 22.6124 70.934 22.8595 69.7255 23.0223C69.3252 21.5373 68.8203 19.6663 68.3597 17.9578L68.3536 17.935C67.8746 16.1572 67.4438 14.5582 67.2268 13.7573H68.8333C69.1557 14.3079 70.0586 15.8538 71.0264 17.5114L71.0547 17.5597L71.1219 17.6742C72.1661 19.4621 73.2661 21.3459 73.7825 22.2296ZM73.1011 13.7573H75.4341L82.3969 18.7425C81.3993 19.3091 80.3741 19.8244 79.3253 20.2916L73.1011 13.7573ZM76.9114 13.7573H81.5108L86.4448 16.066C86.3027 16.1745 86.1583 16.283 86.0162 16.3885C85.1064 17.0606 84.1691 17.6875 83.2074 18.2663C82.167 17.521 81.1098 16.764 80.1327 16.0645C78.8456 15.1429 77.6975 14.321 76.9114 13.7573ZM83.5359 13.7573H89.1841C88.5393 14.3541 87.8763 14.9267 87.201 15.4723L85.3547 14.6085L83.5359 13.7573ZM68.8608 23.1248C66.9106 23.3325 65.4775 23.3087 64.8252 23.2787V13.7573H66.3346L68.8608 23.1248ZM69.3367 27.691L65.8106 24.1646C66.6211 24.1646 67.7363 24.1224 69.09 23.9718L69.6476 26.0333L69.6568 26.0605L69.6583 26.0652C69.9203 26.833 70.2541 27.813 70.811 28.4807C70.3282 28.3873 69.8073 28.1612 69.3367 27.691ZM72.5557 28.3541C71.6031 28.553 71.1059 27.6488 70.4734 25.7952C70.4734 25.7926 70.4359 25.6544 70.3687 25.4087C70.2778 25.072 70.1311 24.5336 69.9516 23.8663C71.2204 23.6914 72.6581 23.4202 74.2195 23.0042C74.4395 23.4202 74.9039 24.2551 75.4791 25.105C76.0941 26.0122 76.6548 26.6693 77.1734 27.0852C74.6656 27.7754 72.749 28.3028 72.5588 28.3541H72.5557ZM78.3697 26.7537C77.505 26.6813 76.007 24.5203 75.0666 22.7692C75.3378 22.6908 75.612 22.6064 75.8893 22.519C76.9863 22.1723 78.0626 21.7715 79.1175 21.3224C80.504 22.7782 81.5314 23.8572 81.5345 23.8602C81.6796 24.029 82.4267 24.8608 83.3403 25.3883C82.0715 25.7368 80.7492 26.1013 79.4842 26.4503L79.4651 26.4555L78.3727 26.7567L78.3697 26.7537ZM84.9552 24.9423C84.066 25.1863 82.6169 23.7939 82.1769 23.2875C82.1739 23.2815 82.1677 23.2785 82.1647 23.2725L79.9555 20.9547C81.0494 20.4544 82.1196 19.8998 83.1623 19.294L89.0091 23.4804C89.0091 23.4804 89.016 23.4851 89.0244 23.4908C89.0328 23.4964 89.0427 23.5031 89.0489 23.5075L89.0595 23.5136C89.1298 23.552 89.2666 23.6266 89.443 23.7065C88.6394 23.9294 87.3744 24.277 85.8871 24.6855L84.9521 24.9423H84.9552ZM94.3258 20.4032C94.3258 20.4032 93.9278 21.3164 93.8858 21.4159C93.8629 21.4568 93.3358 22.4136 91.1037 23.2152C90.7752 23.3388 89.9556 23.0254 89.4889 22.7661C89.4743 22.7544 87.9099 21.6342 85.8436 20.1551L85.8329 20.1473L83.9667 18.8118C84.8322 18.2783 85.6786 17.7056 86.5043 17.0968C86.7786 16.8949 87.0505 16.6869 87.3186 16.4789L93.8652 19.5442L93.9102 19.5623L93.9225 19.5661C93.9958 19.5892 94.3426 19.6984 94.8025 19.7792C94.6031 19.9571 94.4282 20.1651 94.3227 20.4032H94.3258ZM96.4326 18.9263C95.5946 19.1735 94.3739 18.8057 94.2051 18.7545C94.1814 18.7425 91.1343 17.3168 88.0657 15.8822C88.88 15.2131 89.6661 14.5078 90.4345 13.7633L101.726 17.3681C100.37 17.7682 99.1497 18.1275 98.2002 18.4074L98.1842 18.412L98.1796 18.4133C97.3722 18.6512 96.7618 18.8312 96.4295 18.9293L96.4326 18.9263ZM104.073 16.6749C103.555 16.8285 102.457 16.6538 102.054 16.5694C102.04 16.565 100.905 16.2028 99.356 15.7081L99.34 15.7029C96.5793 14.8217 92.5161 13.5242 91.119 13.0792C91.5804 12.609 92.0326 12.1267 92.4757 11.6294L109.357 15.1166C108.268 15.4383 107.126 15.7749 105.986 16.1105L105.984 16.111C105.342 16.3002 104.7 16.4891 104.07 16.6749H104.073ZM116.277 13.0792C116.277 13.0792 114.068 13.7301 111.108 14.6012L93.1234 10.885C93.4252 10.5293 93.72 10.1707 94.0126 9.80291L116.922 12.8621C116.726 12.9314 116.512 13.0038 116.277 13.0792ZM119.773 10.0109C119.758 10.041 118.805 11.7951 118.805 11.7951C118.797 11.8072 118.788 11.8374 118.779 11.8585L118.788 11.8343C118.788 11.8343 118.769 11.8645 118.724 11.9127C118.537 12.0363 117.817 12.0936 117.175 12.0303C117.164 12.0303 111.06 11.2148 104.701 10.3652C101.061 9.87885 97.337 9.3814 94.6245 9.01924C94.914 8.63951 95.1943 8.25375 95.4747 7.86187L120.086 9.51057C119.906 9.73363 119.806 9.94156 119.773 10.0109ZM124.08 5.7792L124.074 5.79127C124.074 5.79127 122.878 7.92222 122.859 7.95232C122.802 8.03367 122.296 8.74202 121.591 8.74798L96.0468 7.03603C96.3302 6.62017 96.6075 6.19514 96.8787 5.76416H124.092C124.092 5.76416 124.086 5.77623 124.08 5.7792ZM126.817 3.81142L126.815 3.81501L126.796 3.84267C126.508 4.2955 126.241 4.71243 126.22 4.74543C126.172 4.77858 125.949 4.90218 125.358 4.90218H97.3248C97.8886 3.83518 99.2659 1.69225 101.225 1.69225H126.657C126.832 1.69828 127.353 1.78269 127.54 2.05692C127.589 2.12926 127.615 2.21971 127.615 2.32818C127.615 2.42466 127.592 2.53619 127.553 2.65971C127.52 2.7112 127.156 3.28037 126.817 3.81142ZM43.9389 11.7219C43.9855 11.7256 44.0329 11.7295 44.0841 11.7319L42.0613 7.018H41.9077L39.804 11.7319C39.8284 11.7298 39.8536 11.7267 39.8796 11.7235C39.9293 11.7173 39.9812 11.7108 40.0393 11.7108C40.0859 11.7108 40.1294 11.7158 40.1768 11.7212C40.2111 11.7252 40.2486 11.7294 40.2891 11.7319C40.4556 11.1688 40.6672 10.6368 40.8773 10.1082L40.9552 9.91146H42.667C42.9382 10.5263 43.1796 11.1713 43.3752 11.7319C43.4164 11.7297 43.4577 11.7264 43.4997 11.723C43.5738 11.7171 43.6502 11.7108 43.7311 11.7108C43.8014 11.7108 43.8686 11.7162 43.9389 11.7219ZM41.082 9.62813L41.8168 7.90114L42.5647 9.62813H41.082ZM45.7837 11.524C45.2566 11.524 44.9518 11.2527 44.6898 10.8216H44.6264C44.5966 11.0236 44.563 11.2256 44.4966 11.4214C44.7257 11.6716 45.2658 11.8132 45.5973 11.8132C46.5163 11.8132 47.2634 11.2406 47.2634 10.2761C47.2634 9.53097 46.6927 9.30646 46.1427 9.09013C45.6317 8.88907 45.139 8.6952 45.139 8.097C45.139 7.61781 45.5248 7.30736 45.9884 7.30736C46.3834 7.30736 46.682 7.53034 46.8234 7.8951H46.8898C46.8997 7.86034 46.9097 7.82559 46.9188 7.7909C46.9624 7.63622 47.0044 7.48329 47.0709 7.34052C46.8203 7.11746 46.4292 7.018 46.1061 7.018C45.2986 7.018 44.6111 7.44295 44.6111 8.31402C44.6111 9.1119 45.1909 9.33999 45.7432 9.55694C46.2436 9.75394 46.721 9.94179 46.721 10.5384C46.721 11.0718 46.3116 11.524 45.7837 11.524ZM51.3479 9.42616C51.3479 7.94934 52.4479 7.018 53.8435 7.018C55.1123 7.018 56.3995 7.7052 56.3995 9.32372C56.3995 10.8277 55.3354 11.8103 53.8313 11.8103C52.3272 11.8103 51.3509 10.8669 51.3509 9.42318L51.3479 9.42616ZM55.317 7.89204C54.9794 7.46709 54.4554 7.238 53.9123 7.238C52.7252 7.238 52.0109 8.13618 52.0109 9.50454C52.0109 10.8729 52.8489 11.5872 53.8527 11.5872C55.275 11.5872 55.7876 10.1164 55.7418 9.37498C55.7418 8.81436 55.6669 8.34419 55.317 7.89204ZM61.0623 11.7318H61.267V7.12044C61.2387 7.12288 61.212 7.12685 61.186 7.13067C61.1486 7.13625 61.1127 7.14152 61.0768 7.14152C61.0325 7.14152 60.9912 7.13526 60.9515 7.12915C60.9301 7.12578 60.9087 7.12258 60.8873 7.12044V10.5925H60.8209L57.6171 7.12044H57.3543V11.7318C57.378 11.7296 57.4017 11.7261 57.4246 11.7226C57.4636 11.7167 57.5033 11.7107 57.5445 11.7107C57.5812 11.7107 57.6171 11.7162 57.6545 11.7219C57.6798 11.7256 57.705 11.7294 57.7317 11.7318V8.09692H57.8004L60.7124 11.3189C60.8537 11.4757 60.9897 11.6384 61.0623 11.7318ZM68.9135 7.12044C69.0877 8.78717 69.2779 10.4449 69.4589 11.7318C69.4077 11.7293 69.3627 11.7252 69.3184 11.7213C69.258 11.7158 69.2015 11.7107 69.1419 11.7107C69.0724 11.7107 69.0021 11.7171 68.9341 11.7231C68.8975 11.7265 68.8608 11.7297 68.8257 11.7318C68.7111 10.3786 68.5759 8.91978 68.4819 8.25367C67.6982 9.65219 67.1199 10.7281 66.7158 11.6595H66.644L66.2727 10.897C65.9443 10.2187 65.5906 9.54739 65.2384 8.87784L65.2377 8.87731C65.1284 8.6693 65.0192 8.46144 64.9107 8.25367C64.8794 8.53195 64.8466 8.81131 64.8137 9.08661V9.08806V9.08959C64.693 10.1134 64.5792 11.0815 64.5792 11.7318C64.5433 11.7294 64.5097 11.7253 64.4768 11.7214C64.431 11.7159 64.3882 11.7107 64.3439 11.7107C64.2889 11.7107 64.2385 11.7167 64.1888 11.7226C64.1598 11.7261 64.13 11.7296 64.0995 11.7318C64.2744 10.6468 64.6785 7.82872 64.748 7.12044H64.923C65.4623 8.1934 66.11 9.45924 66.8304 10.6528C67.1054 10.1586 67.3758 9.66098 67.6485 9.15895L67.6493 9.15819C68.0136 8.48803 68.3818 7.80947 68.7714 7.12044H68.9135ZM74.0384 11.7216C74.0858 11.7254 74.1355 11.7294 74.1882 11.7319L72.1661 7.018H72.0095L69.9088 11.7319C69.9333 11.7298 69.9585 11.7267 69.9845 11.7235C70.0341 11.7173 70.0861 11.7108 70.1434 11.7108C70.1915 11.7108 70.2373 11.716 70.2854 11.7215C70.3198 11.7254 70.355 11.7294 70.3939 11.7319C70.5597 11.1689 70.7713 10.6369 70.9814 10.1084L71.06 9.91146H72.775C73.0431 10.5263 73.2875 11.1713 73.48 11.7319C73.5236 11.7297 73.5656 11.7262 73.6091 11.7228C73.6832 11.7168 73.7589 11.7108 73.8391 11.7108C73.9063 11.7108 73.9705 11.7161 74.0384 11.7216ZM71.1868 9.62813L71.9217 7.90114L72.6695 9.62813H71.1868ZM74.9016 7.12044H76.3301C77.3705 7.12044 77.825 7.46404 77.825 8.1452C77.825 8.92581 77.123 9.30555 76.4447 9.42609L77.8342 11.1863L78.1566 11.5631L78.2864 11.7318C78.2299 11.7294 78.1757 11.7255 78.1237 11.7217C78.0466 11.7161 77.9725 11.7107 77.8945 11.7107C77.8113 11.7107 77.7257 11.717 77.644 11.7231C77.5989 11.7265 77.5546 11.7297 77.5118 11.7318C77.4645 11.6666 77.4194 11.6031 77.3743 11.5409C77.2773 11.405 77.1841 11.2754 77.0871 11.1471L76.2911 10.1163L75.7518 9.48338H75.4952V11.7349C75.4516 11.7324 75.4104 11.7284 75.3699 11.7246C75.3111 11.719 75.2545 11.7138 75.1973 11.7138C75.1354 11.7138 75.0697 11.72 75.0055 11.726C74.9704 11.7294 74.9352 11.7327 74.9016 11.7349V7.12342V7.12044ZM75.4952 9.22419C75.5891 9.23022 76.02 9.25734 76.3668 9.19104C76.8579 9.08852 77.2284 8.75401 77.2284 8.22655C77.2284 7.76241 76.9932 7.458 76.4875 7.37657C76.2369 7.33739 75.7786 7.35549 75.4952 7.37054V9.22419ZM82.6612 7.12922C82.6261 7.12586 82.5917 7.12258 82.5588 7.12044V11.7318C82.5917 11.7297 82.6261 11.7264 82.6612 11.723C82.7246 11.717 82.7903 11.7107 82.8537 11.7107C82.9095 11.7107 82.9645 11.716 83.0225 11.7215C83.063 11.7254 83.105 11.7294 83.1493 11.7318V7.12044C83.105 7.12288 83.063 7.12686 83.0225 7.13075C82.9645 7.13625 82.9095 7.14152 82.8537 7.14152C82.7903 7.14152 82.7246 7.13526 82.6612 7.12922ZM88.3797 11.7318H88.1773C88.1055 11.6384 87.9695 11.4757 87.8282 11.3189L84.9132 8.09692H84.8467V11.7318C84.8207 11.7294 84.7955 11.7257 84.7703 11.722C84.7314 11.7163 84.6939 11.7107 84.6573 11.7107C84.6152 11.7107 84.5763 11.7167 84.5373 11.7226C84.5144 11.7261 84.4907 11.7296 84.467 11.7318V7.12044H84.7298L87.9336 10.5925H88V7.12044C88.0214 7.12258 88.0428 7.12586 88.065 7.12922C88.1055 7.13526 88.1467 7.14152 88.1895 7.14152C88.2254 7.14152 88.2613 7.13625 88.2987 7.13067C88.3247 7.12685 88.3514 7.12288 88.3797 7.12044V11.7318ZM49.6436 11.7368C49.6841 11.7406 49.7254 11.7445 49.7689 11.7469V7.44601C50.3693 7.44601 50.8422 7.4852 51.1768 7.52736C51.1745 7.50574 51.1722 7.48382 51.1699 7.46182C51.1638 7.41637 51.1584 7.37008 51.1584 7.32539C51.1584 7.28437 51.163 7.24556 51.1684 7.20408C51.1714 7.1788 51.1745 7.15191 51.1768 7.12349H47.6988C47.7011 7.15199 47.7041 7.17834 47.7072 7.2037C47.7118 7.24518 47.7163 7.2843 47.7163 7.32539C47.7163 7.37008 47.711 7.41614 47.7057 7.46167C47.7034 7.48375 47.7003 7.50574 47.6988 7.52736C48.0815 7.4852 48.4909 7.44601 49.1723 7.44601V11.7469C49.2075 11.7448 49.2434 11.7414 49.28 11.7379C49.3434 11.732 49.4076 11.7258 49.471 11.7258C49.5283 11.7258 49.5848 11.7312 49.6436 11.7368ZM80.2473 11.7367C80.2878 11.7405 80.3291 11.7444 80.3734 11.7469V7.44593C80.973 7.44593 81.4428 7.48504 81.7804 7.52729C81.7789 7.51522 81.7774 7.50307 81.7751 7.49077C81.7675 7.43585 81.7598 7.37955 81.7598 7.32532C81.7598 7.28636 81.7644 7.24946 81.7705 7.21042C81.7743 7.183 81.7782 7.15443 81.7804 7.12342H78.3025C78.3048 7.15443 78.3086 7.183 78.3132 7.21042C78.3185 7.24946 78.3239 7.28636 78.3239 7.32532C78.3239 7.3671 78.3177 7.41003 78.3116 7.45265C78.3078 7.47771 78.3048 7.50269 78.3025 7.52729C78.6852 7.48504 79.0984 7.44593 79.7791 7.44593V11.7469C79.8127 11.7447 79.8463 11.7414 79.8807 11.7381C79.9441 11.732 80.0082 11.7258 80.0747 11.7258C80.132 11.7258 80.1885 11.7311 80.2473 11.7367Z" fill="#808388"/>
</svg>
