<svg width="140" height="22" viewBox="0 0 140 22" fill="none" xmlns="http://www.w3.org/2000/svg">
<path d="M19.8508 21.0403H23.2406V10.7331V0.425903H19.8508V10.7331V21.0403Z" fill="#808388"/>
<path d="M139.013 8.37478V5.25797H135.153V1.6958H131.796V5.25797H129.249V8.37478H131.796V21.0402H139.013V17.8082H135.153V8.37478H139.013Z" fill="#808388"/>
<path d="M12.3402 9.2157L12.0645 9.1662V0.425781H0.0136719V21.0402H11.1887C14.5136 21.0402 17.0275 18.4843 17.0275 15.0865C17.0275 12.1347 15.0974 9.72697 12.3402 9.2157ZM3.38724 3.79002H8.67464V9.11678H3.38724V3.79002ZM10.9616 17.7089H3.35485V12.4315H10.8318C12.5348 12.4315 13.5404 13.7673 13.5404 15.0704C13.5566 16.6036 12.47 17.7089 10.9616 17.7089Z" fill="#808388"/>
<path d="M117.003 21.0402H120.344V8.39145H126.346V5.25806H117.003V21.0402Z" fill="#808388"/>
<path d="M74.3622 5.25776L67.5338 12.5634V0.425781H64.1284V21.0402H67.5338V13.7176L74.3622 21.0402H78.8715L71.5076 13.1406L78.8715 5.25776H74.3622Z" fill="#808388"/>
<path d="M87.3201 8.04497C88.246 8.02748 89.155 8.29759 89.9258 8.8191C90.6965 9.34068 91.2924 10.0889 91.6346 10.9639L94.765 9.64463C93.5321 6.72566 90.7584 5.0105 87.3201 5.0105C85.0659 5.0105 82.9897 5.83512 81.5138 7.35228C80.038 8.86952 79.2107 10.9474 79.2107 13.2233C79.2107 18.006 82.552 21.3373 87.3201 21.3373C90.6614 21.3373 93.4672 19.5559 94.7322 16.6868L91.6506 15.4004C90.9532 17.2146 89.3635 18.3024 87.3522 18.3024C84.5954 18.3024 82.6001 16.1589 82.6001 13.1904C82.6001 10.1723 84.5465 8.04497 87.3201 8.04497Z" fill="#808388"/>
<path d="M53.3743 8.04497C54.3002 8.02748 55.2092 8.29759 55.98 8.8191C56.7515 9.34068 57.3473 10.0889 57.6888 10.9639L60.8192 9.64463C59.5863 6.72566 56.8134 5.0105 53.3743 5.0105C51.1201 5.0105 49.0439 5.83512 47.568 7.35228C46.0922 8.86952 45.2649 10.9474 45.2649 13.2233C45.2649 18.006 48.6061 21.3373 53.3743 21.3373C56.7156 21.3373 59.5221 19.5559 60.7871 16.6868L57.7048 15.4004C57.0074 17.2146 55.4185 18.3024 53.4072 18.3024C50.6495 18.3024 48.655 16.1589 48.655 13.1904C48.655 10.1723 50.6014 8.04497 53.3743 8.04497Z" fill="#808388"/>
<path d="M39.1987 7.63303C38.5914 6.79099 37.7939 6.1093 36.8742 5.64508C35.9545 5.18079 34.938 4.9475 33.9112 4.96476C29.4023 4.96476 26.126 8.39493 26.126 13.1116C26.126 18.0097 29.2562 21.2914 33.9112 21.2914C34.9301 21.3066 35.9392 21.0874 36.8627 20.6505C37.787 20.2135 38.6021 19.5703 39.2476 18.7682V21.0271H42.3612V5.24511H39.1827V7.63639L39.1987 7.63303ZM34.3329 18.3198C31.5432 18.3198 29.5158 16.1259 29.5158 13.1247C29.5158 10.0738 31.4945 7.96288 34.3329 7.96288C37.1064 7.96288 39.1177 10.1397 39.1177 13.1247C39.1177 16.1786 37.1385 18.3229 34.3329 18.3229V18.3198Z" fill="#808388"/>
<path d="M110.175 7.63322C109.567 6.79119 108.77 6.10949 107.85 5.6452C106.93 5.18091 105.914 4.94762 104.887 4.96488C100.379 4.96488 97.1023 8.39513 97.1023 13.1117C97.1023 18.0097 100.232 21.2914 104.887 21.2914C105.906 21.3067 106.915 21.0874 107.84 20.6505C108.763 20.2136 109.578 19.5704 110.224 18.7683V21.0279H113.337V5.24523H110.159V7.63651L110.175 7.63322ZM105.309 18.3199C102.519 18.3199 100.492 16.126 100.492 13.1248C100.492 10.0739 102.471 7.963 105.309 7.963C108.082 7.963 110.094 10.1399 110.094 13.1248C110.078 16.1795 108.115 18.3229 105.309 18.3229V18.3199Z" fill="#808388"/>
</svg>
