<svg width="158" height="12" viewBox="0 0 158 12" fill="none" xmlns="http://www.w3.org/2000/svg">
<path fill-rule="evenodd" clip-rule="evenodd" d="M48.4616 11.2949H46.4044V7.17423V2.0024V0.467285H47.9077H48.4616H65.1464C65.9729 0.467285 66.6482 1.15838 66.6482 2.0024V7.17423C66.6482 7.90016 66.1502 8.51272 65.4856 8.67016L66.8048 11.2949H64.5819L63.2833 8.70988H48.4616V11.2949ZM48.4616 2.5689V6.60857V6.60941H49.0138H62.4575H63.9593C64.3084 6.60941 64.5926 6.31807 64.5926 5.96286V3.21545C64.5926 2.85941 64.3077 2.5689 63.9593 2.5689H62.4575H49.0138H48.4616ZM24.8989 11.2949H42.2931C43.0807 11.2949 43.7187 10.641 43.7187 9.84043V1.92227C43.7187 1.12278 43.0807 0.468049 42.2931 0.468049H24.8989C24.1112 0.468049 23.4732 1.12278 23.4732 1.92227V9.84043C23.4741 10.641 24.1112 11.2949 24.8989 11.2949ZM26.0047 2.56882H41.2668C41.5283 2.56882 41.7417 2.78737 41.7417 3.05359V8.70988C41.7417 8.97648 41.5283 9.19495 41.2668 9.19495H26.0047C25.7432 9.19495 25.5298 8.97648 25.5298 8.70988V3.05359C25.5298 2.78653 25.7432 2.56882 26.0047 2.56882ZM0.458008 11.2956H2.51371V8.71064H19.1999C20.0261 8.71064 20.7027 8.01947 20.7027 7.17545V2.00362C20.7027 1.1596 20.0261 0.468509 19.1999 0.468509H2.51371H1.96004H0.458008V2.00362V7.17545V11.2956ZM2.51371 6.60903V2.56928H3.06669H16.5101H18.0129C18.3602 2.56928 18.6454 2.85979 18.6454 3.21591V5.96324C18.6454 6.31845 18.361 6.60979 18.0129 6.60979H16.5101H3.06745L2.51371 6.60903ZM115.207 11.2949H117.264V6.93147H132.367V11.2949H134.424V0.467285H132.367V4.83154H117.264V0.467285H115.207V11.2949ZM112.12 11.2949H94.4866C93.6998 11.2949 93.062 10.641 93.062 9.83967V1.9215C93.062 1.12202 93.6998 0.467285 94.4866 0.467285H112.12V2.5964C112.071 2.5786 112.017 2.56806 111.962 2.56806H95.592C95.3315 2.56806 95.1176 2.78661 95.1176 3.05282V8.70911C95.1176 8.97571 95.3323 9.19418 95.592 9.19418H111.962C112.017 9.19418 112.071 9.18425 112.12 9.16669V11.2949ZM137.582 11.2949H138.769H139.639H157.984V9.19418H139.639V6.93147H157.984V4.83154H139.639V2.5689H157.984V0.467361H139.639H138.769H137.582V11.2949ZM72.3438 3.05282V3.53835L72.343 4.34517C72.343 4.61222 72.5561 4.8307 72.8174 4.8307H86.2611C86.3176 4.8307 86.3703 4.82099 86.4207 4.8032V4.8307H87.9202C88.7078 4.8307 89.3457 5.48543 89.3457 6.28575V8.22466V9.19418V9.84043C89.3457 10.6402 88.7078 11.2949 87.9202 11.2949H70.2866V9.16669C70.3363 9.18425 70.3898 9.19418 70.4448 9.19418H86.8141C87.0761 9.19418 87.2893 8.97571 87.2893 8.70911V8.22381V7.41623C87.2893 7.14918 87.0761 6.93071 86.8141 6.93071H73.3712C73.3154 6.93071 73.2627 6.94117 73.2131 6.9582V6.93071H71.712C70.9245 6.93071 70.2866 6.27605 70.2866 5.47649V3.53759V2.56814V1.9215C70.2866 1.12202 70.9245 0.467361 71.712 0.467361H89.3457V2.5964C89.2968 2.5786 89.2433 2.56814 89.1883 2.56814H72.8182C72.5577 2.56814 72.3438 2.78661 72.3438 3.05282Z" fill="#808388"/>
</svg>
