<svg width="98" height="49" viewBox="0 0 98 49" fill="none" xmlns="http://www.w3.org/2000/svg">
<path fill-rule="evenodd" clip-rule="evenodd" d="M49.654 48.6844H0.596924V0.666626H97.6637L49.654 48.6844ZM48.6182 10.27H58.205V10.2689C67.3342 10.2689 71.6242 13.3592 71.6265 20.4541C71.6265 26.8245 67.2143 30.623 59.7496 30.623H56.6619L56.6268 39.0938L42.1144 39.08L41.1031 35.4087C39.6058 35.8999 37.9176 36.1734 36.1225 36.1734C34.2808 36.1734 32.546 35.8847 31.0205 35.3644L29.5691 39.08L21.4803 39.1052L21.8431 37.236C21.8225 37.2543 21.8019 37.2719 21.782 37.2902C21.688 37.3727 21.5949 37.4552 21.4933 37.5369C19.3315 39.2763 16.6105 40.0799 13.2577 40.1403L12.3912 40.1472C8.53916 40.1472 5.14909 39.2358 1.95535 37.4193L4.90793 31.561C8.10481 33.4509 10.1109 33.8764 12.8181 33.8191C14.2213 33.7916 15.2347 33.5349 15.8962 32.852C16.2958 32.4342 16.5051 31.9155 16.5265 31.3609C16.5532 29.8392 14.3866 29.1242 11.735 28.3023C9.58484 27.6366 7.14444 26.7295 5.23656 25.3317C2.97865 23.6702 1.90409 21.5916 1.95749 18.6593C1.9895 16.5283 2.77913 14.6013 4.24312 13.086C6.34313 10.9145 9.73105 9.59672 13.7998 9.59672H13.8211C17.3102 9.59985 21.5658 10.5891 24.6435 12.1555L21.3244 17.939C17.9496 16.3085 16.253 16.1538 14.3323 16.0503C11.4693 15.8977 10.0287 16.921 10.0074 18.0244C9.9797 19.3689 12.7124 20.5853 15.2874 21.4123C19.1863 22.6512 24.1417 24.3052 24.8994 29.0983L32.025 10.2615H40.3025L48.6503 32.8169L48.6182 10.27ZM33.0624 29.0074C33.9622 29.3488 35.008 29.5436 36.1225 29.5436C37.208 29.5436 38.2278 29.3542 39.1246 29.0341L36.1477 19.4521H36.0889L33.0624 29.0074ZM56.6596 24.0533H58.7657H58.7672C61.5737 24.0533 63.8119 23.1196 63.8142 20.1532C63.8142 17.287 61.5737 16.3523 58.7672 16.3523H56.6596V24.0533Z" fill="#808388"/>
</svg>
