<svg width="144" height="35" viewBox="0 0 144 35" fill="none" xmlns="http://www.w3.org/2000/svg">
<path d="M31.3085 0.307794C27.8019 0.275634 24.4901 2.09636 24.4901 2.09636C24.4901 2.09636 21.1535 4.17246 19.9348 7.28332C19.8717 7.58559 13.2614 20.7579 13.2614 20.7579C4.88263 18.2682 0.831577 23.3123 0.959223 25.2587C2.98353 30.476 12.8823 26.7651 13.8708 25.5574C14.4178 25.2556 14.7702 25.617 14.7702 25.617C14.7702 25.617 17.1945 27.2746 17.4685 27.4052C17.7422 27.5358 19.1224 27.3456 19.1224 27.3456C20.1959 27.2616 22.1112 25.1006 22.3431 25.0799C22.7009 25.0815 23.1327 27.474 24.6062 27.435C26.3742 27.7864 28.291 25.7361 28.291 25.7361C28.5433 25.3695 28.6392 25.6467 28.6392 25.6467C28.5986 27.8949 30.3761 27.4984 30.9024 27.435C32.6491 26.7047 36.9278 22.3735 36.4441 23.6492C36.2761 23.9945 34.9644 26.5107 34.9644 26.5107C34.8176 27.1814 35.2836 27.1371 35.2836 27.1371L38.3591 27.1073C38.8847 26.7842 41.5759 20.8304 41.2604 21.6516C42.2305 19.8489 44.4229 19.2075 44.4229 19.2075C44.6337 19.1431 44.539 19.4459 44.539 19.4459L40.9411 26.7796C40.8784 26.9729 41.2314 27.1669 41.2314 27.1669L44.3648 27.1073C44.7857 27.0653 47.412 21.5324 47.412 21.5324C48.1262 20.1288 50.6616 19.3266 50.6616 19.3266C51.1237 19.2414 50.8067 19.7142 50.8067 19.7142L48.3401 25.0204C47.965 27.4297 49.9351 27.571 50.7777 27.4648C51.6195 27.338 52.9884 26.8506 55.6811 24.782C56.228 24.3512 56.348 24.7843 56.348 24.8714C56.3716 27.8338 59.5395 27.4946 59.5395 27.4946C60.4867 27.7352 64.3321 27.642 67.5481 21.0558C66.3717 25.5283 68.7695 26.7467 68.8536 26.8988C68.9376 27.05 70.2263 27.5122 70.7106 27.4052C75.6148 27.8521 77.6742 20.0123 77.6742 20.0123C78.7773 19.1616 79.0576 18.9176 79.5022 18.6708C80.5968 18.7816 80.8902 18.8133 81.4165 18.8795C81.8374 19.0322 81.4562 19.4359 81.3294 19.5651C76.3229 23.5736 78.5206 26.6642 78.6894 26.6001C80.8802 29.6556 85.4284 24.3298 86.2916 24.245C87.3886 28.7466 90.7283 26.7872 90.8757 26.8094C90.5816 27.6947 89.7253 29.8856 88.9897 31.3102C87.4543 33.5331 85.0434 31.0421 85.0434 31.0421L84.4346 31.0123C84.1398 31.4004 84.3185 31.8472 84.3185 31.8472C84.9502 32.8869 85.7592 34.326 88.264 34.679C90.7902 34.7943 92.2393 31.9366 92.2393 31.9366C92.2393 31.9366 95.7799 25.2236 96.0114 24.4245C97.0838 23.4322 98.9454 22.0007 100.334 20.9664C101.239 20.7747 98.07 26.0829 97.8393 26.8392C97.7759 27.2715 97.9264 27.286 97.9264 27.286C97.9264 27.286 100.336 27.409 100.799 27.3456C101.262 27.2822 103.51 21.7937 104.309 20.7579C105.003 19.5702 107.24 18.4621 107.24 18.4621C107.724 18.3554 107.559 18.9391 107.559 18.9391L104.6 25.0799C103.886 27.6512 105.895 27.6642 106.254 27.6435C107.221 27.5809 110.838 25.4374 110.838 25.4374C111.343 25.0494 111.331 25.6765 111.331 25.6765C111.289 26.4977 112.153 27.8445 112.869 27.6733C115.436 27.9186 119.321 23.5361 119.426 23.9471C119.447 24.0334 117.975 27.0179 117.975 27.0179C118.039 27.2555 118.295 27.3754 118.295 27.3754C118.295 27.3754 120.781 27.4037 121.37 27.4052C121.959 27.4075 124.64 20.8258 125.229 20.4595C126.428 19.1871 127.739 19.0662 127.782 19.0882C128.225 19.0679 125.281 23.899 125.112 24.8714C124.462 27.6596 126.39 27.6138 126.39 27.6138C127.926 27.8567 131.694 25.1105 131.758 25.3481C132.198 24.8958 132.25 25.4374 132.25 25.4374V25.6467C132.505 27.8964 133.788 27.6435 133.788 27.6435C135.261 28.037 141.013 23.0831 141.013 23.0831L140.143 22.0992L136.545 24.782C136.25 24.9325 136.08 24.6033 136.08 24.6033L140.114 16.6139C140.302 16.42 140.027 16.1966 140.027 16.1966H136.4C136.147 16.4769 135.993 16.6736 135.993 16.6736L132.715 23.2321L129.117 25.0501C128.738 25.1571 128.826 24.7522 128.826 24.7522C128.826 24.7522 131.824 18.7085 132.076 17.866C132.245 17.4773 132.163 16.8524 132.163 16.8524C131.172 14.4921 127.169 17.5478 126.622 17.5679C126.601 17.5895 127.115 16.4947 127.115 16.4947C127.262 16.1706 126.969 16.1668 126.969 16.1668L123.604 16.137C123.604 16.137 123.614 15.8914 123.488 16.1072C123.362 16.3231 121.196 20.4893 121.196 20.4893L115.77 24.6926C115.307 24.7782 115.422 24.4543 115.422 24.4543L119.397 16.5543L119.426 16.2264L115.596 16.137L112.433 22.3972C112.265 22.5912 108.952 24.5139 108.952 24.5139C108.447 24.6644 108.429 24.2152 108.429 24.2152L111.36 18.3728C112.024 16.0935 109.6 15.4233 108.4 15.8687C107.59 16.169 106.833 16.4351 106.833 16.4351C106.833 16.4351 106.594 16.4991 106.804 16.1966C107.162 15.6786 110.867 8.14781 110.867 8.14781C110.951 7.93156 110.751 7.79016 110.751 7.79016L107.385 7.76029C107.111 7.88885 107.066 8.08823 107.066 8.08823L102.278 17.4188L98.3321 20.4595C98.08 20.6318 98.0716 20.3402 98.0716 20.3402L100.044 16.4947V16.1072L96.5041 16.0774L95.9243 16.5543C95.524 15.6882 93.4921 15.6982 93.4286 15.7196C89.1768 15.5775 86.7843 21.7708 86.7843 21.7708C84.4186 23.8783 83.3255 24.5338 82.5486 24.6629C81.9016 24.7003 81.7068 24.1556 81.7068 24.1556C80.8061 21.3208 86.465 18.641 86.465 18.641C86.6545 18.5331 87.4703 16.018 87.3649 16.0178C87.2595 16.0175 80.4066 16.0096 80.3432 15.9879C79.9643 15.8357 78.1341 17.6055 77.5871 18.015C75.9837 13.188 69.7733 16.8387 68.9116 18.9988C68.5411 19.1002 68.3754 19.0296 68.1859 19.0286C68.2486 17.3854 68.0362 16.3608 67.0256 15.8389C66.4779 15.5347 64.2404 15.8389 64.2404 15.8389L68.0408 8.05843C68.2302 7.82086 67.8666 7.58146 67.8666 7.58146H64.4429C64.2962 7.66763 64.1243 7.87953 64.1243 7.87953C64.1243 7.87953 57.655 20.7517 57.2768 21.4431C56.898 22.1336 52.1702 24.7224 52.1702 24.7224C52.2115 24.2465 55.2571 18.8063 55.3618 17.7468C55.4855 15.0009 52.4315 15.8687 52.4315 15.8687C52.4315 15.8687 50.7013 17.0485 49.1239 17.866C48.7847 14.8589 46.2218 15.8985 46.2218 15.8985L43.3206 17.8361L43.8431 16.4351L43.9592 15.8985L40.4774 15.8091C40.0779 16.1107 39.3743 17.7468 39.3743 17.7468L38.2721 19.8335L33.3106 23.679C32.8268 23.9585 33.0785 23.2917 33.0785 23.2917C33.0785 23.2917 36.4281 16.5412 36.5022 16.4947C36.7754 16.3222 36.5602 15.8985 36.5602 15.8985L33.1945 15.8687C33.1945 15.8687 32.6244 16.8636 32.4981 16.9716C30.8969 14.6528 25.6124 15.5938 22.7783 22.4567C22.4159 22.9151 22.1357 23.2367 21.9368 23.3215C18.6138 27.3128 16.7142 23.3513 16.7142 23.3513L22.6622 11.6952C22.6622 11.6952 25.3685 5.47443 27.0725 3.70611C31.3852 0.712579 32.6142 3.52728 32.6142 3.52728C32.9869 4.41438 34.1232 7.61698 28.262 9.16141C27.4931 9.23948 27.7398 9.60852 27.7398 9.60852C29.4457 11.1055 31.5407 10.95 31.5407 10.95C33.6036 11.3666 39.1941 8.20602 37.1695 3.13976C35.5894 1.01867 33.4126 0.327044 31.3085 0.307794ZM119.832 8.20747C116.759 8.32824 116.58 12.5655 119.716 13.0069C122.768 13.1023 123.348 8.34757 119.832 8.20747ZM140.752 8.20747C137.426 8.21962 137.674 13.041 140.81 13.0069C143.945 12.7567 143.678 8.32381 140.752 8.20747ZM30.9603 17.2399C31.9441 17.2631 31.7722 18.4741 31.5987 18.7006C31.7042 19.0687 29.8869 22.2184 29.8869 22.2184C27.7841 24.9157 26.7823 24.4245 26.7823 24.4245C26.7823 24.4245 26.0617 24.3214 26.6082 22.8738C27.1967 21.8594 28.34 19.219 29.5387 17.6871C30.1699 17.3537 30.6325 17.2323 30.9603 17.2399ZM63.9502 17.5381C64.9814 17.671 64.4719 18.641 64.4719 18.641L61.6287 24.3947C60.7243 25.5383 59.8878 25.1395 59.8878 25.1395C59.4249 24.792 60.2071 23.4704 60.2071 23.4704L62.8761 18.1045C63.4025 17.5436 63.9502 17.5381 63.9502 17.5381ZM93.5448 17.5679C94.3499 17.4211 94.6768 18.1045 94.6768 18.1045C94.6768 18.1045 94.7234 18.2144 94.6188 18.8199C94.3873 19.7493 91.8909 24.1854 91.8909 24.1854C90.8398 25.264 89.9178 25.0501 89.9178 25.0501C89.3923 24.8974 89.5993 24.0961 89.5993 24.0961C89.5993 24.0961 91.6205 19.837 92.5876 18.0448C92.9665 17.7594 93.2766 17.6167 93.5448 17.5679ZM74.1924 17.5976C74.637 17.5206 75.0594 17.7089 74.9754 18.6708C74.4506 19.8154 72.3782 24.0204 71.958 24.6033C71.874 25.1006 69.758 25.9111 70.3042 24.0961C70.3042 24.0961 73.2719 18.3936 73.2925 18.1343C73.3032 18.0045 73.7478 17.6748 74.1924 17.5976ZM7.37146 22.278C9.10633 22.2352 10.6792 22.8142 10.6792 22.8142C10.6792 22.8142 10.2733 24.2038 6.44303 24.8416C4.63284 24.7285 3.68707 24.737 3.68661 24.0663C4.56974 22.7165 6.02212 22.3108 7.37146 22.278Z" fill="#808388"/>
</svg>
