<svg width="527" height="67" viewBox="0 0 527 67" fill="none" xmlns="http://www.w3.org/2000/svg">
<path d="M50.7159 26.7386H41.8523C41.5114 24.8447 40.8769 23.178 39.9489 21.7386C39.0208 20.2992 37.8845 19.0777 36.5398 18.0739C35.1951 17.0701 33.6894 16.3125 32.0227 15.8011C30.375 15.2898 28.6231 15.0341 26.767 15.0341C23.4148 15.0341 20.4129 15.8769 17.7614 17.5625C15.1288 19.2481 13.0455 21.7197 11.5114 24.9773C9.99621 28.2348 9.23864 32.2121 9.23864 36.9091C9.23864 41.6439 9.99621 45.6402 11.5114 48.8977C13.0455 52.1553 15.1383 54.6174 17.7898 56.2841C20.4413 57.9508 23.4242 58.7841 26.7386 58.7841C28.5758 58.7841 30.3182 58.5379 31.9659 58.0455C33.6326 57.5341 35.1383 56.786 36.483 55.8011C37.8277 54.8163 38.964 53.6136 39.892 52.1932C40.839 50.7538 41.4924 49.1061 41.8523 47.25L50.7159 47.2784C50.2424 50.1383 49.3239 52.7708 47.9602 55.1761C46.6155 57.5625 44.8826 59.6269 42.7614 61.3693C40.6591 63.0928 38.2538 64.428 35.5455 65.375C32.8371 66.322 29.8826 66.7955 26.6818 66.7955C21.6439 66.7955 17.1553 65.6023 13.2159 63.2159C9.27652 60.8106 6.17045 57.3731 3.89773 52.9034C1.64394 48.4337 0.517046 43.1023 0.517046 36.9091C0.517046 30.697 1.65341 25.3655 3.92614 20.9148C6.19886 16.4451 9.30492 13.017 13.2443 10.6307C17.1837 8.22538 21.6629 7.02273 26.6818 7.02273C29.7689 7.02273 32.6477 7.4678 35.3182 8.35795C38.0076 9.22917 40.4223 10.517 42.5625 12.2216C44.7027 13.9072 46.4735 15.9716 47.875 18.4148C49.2765 20.839 50.2235 23.6136 50.7159 26.7386ZM63.4327 7.81818V66H54.9384V7.81818H63.4327ZM69.2602 66V22.3636H77.7545V66H69.2602ZM73.55 15.6307C72.0727 15.6307 70.8038 15.1383 69.7432 14.1534C68.7015 13.1496 68.1807 11.9564 68.1807 10.5739C68.1807 9.17235 68.7015 7.97917 69.7432 6.99432C70.8038 5.99053 72.0727 5.48864 73.55 5.48864C75.0273 5.48864 76.2867 5.99053 77.3284 6.99432C78.389 7.97917 78.9193 9.17235 78.9193 10.5739C78.9193 11.9564 78.389 13.1496 77.3284 14.1534C76.2867 15.1383 75.0273 15.6307 73.55 15.6307ZM102.389 66.8807C98.0897 66.8807 94.387 65.9621 91.281 64.125C88.1938 62.2689 85.8075 59.6648 84.1219 56.3125C82.4552 52.9413 81.6219 48.9924 81.6219 44.4659C81.6219 39.9962 82.4552 36.0568 84.1219 32.6477C85.8075 29.2386 88.156 26.5777 91.1673 24.6648C94.1976 22.7519 97.7393 21.7955 101.792 21.7955C104.254 21.7955 106.641 22.2027 108.951 23.017C111.262 23.8314 113.336 25.1098 115.173 26.8523C117.01 28.5947 118.459 30.858 119.52 33.642C120.58 36.4072 121.111 39.7689 121.111 43.7273V46.7386H86.423V40.375H112.787C112.787 38.1402 112.332 36.161 111.423 34.4375C110.514 32.6951 109.236 31.322 107.588 30.3182C105.959 29.3144 104.046 28.8125 101.849 28.8125C99.4628 28.8125 97.3794 29.3996 95.5991 30.5739C93.8378 31.7292 92.4741 33.2443 91.5082 35.1193C90.5613 36.9754 90.0878 38.9924 90.0878 41.1705V46.142C90.0878 49.0587 90.5991 51.5398 91.6219 53.5852C92.6635 55.6307 94.1124 57.1932 95.9685 58.2727C97.8245 59.3333 99.9931 59.8636 102.474 59.8636C104.084 59.8636 105.552 59.6364 106.878 59.1818C108.203 58.7083 109.349 58.0076 110.315 57.0795C111.281 56.1515 112.02 55.0057 112.531 53.642L120.571 55.0909C119.927 57.4583 118.771 59.5322 117.105 61.3125C115.457 63.0739 113.383 64.447 110.883 65.4318C108.402 66.3977 105.571 66.8807 102.389 66.8807ZM133.43 40.0909V66H124.935V22.3636H133.089V29.4659H133.628C134.632 27.1553 136.204 25.2992 138.344 23.8977C140.503 22.4962 143.221 21.7955 146.498 21.7955C149.471 21.7955 152.075 22.4205 154.31 23.6705C156.545 24.9015 158.278 26.7386 159.509 29.1818C160.74 31.625 161.356 34.6458 161.356 38.2443V66H152.861V39.267C152.861 36.1042 152.037 33.6326 150.39 31.8523C148.742 30.053 146.479 29.1534 143.6 29.1534C141.63 29.1534 139.878 29.5795 138.344 30.4318C136.829 31.2841 135.627 32.5341 134.736 34.1818C133.865 35.8106 133.43 37.7803 133.43 40.0909ZM187.517 22.3636V29.1818H163.682V22.3636H187.517ZM170.074 11.9091H178.568V53.1875C178.568 54.8352 178.814 56.0758 179.307 56.9091C179.799 57.7235 180.434 58.2822 181.21 58.5852C182.006 58.8693 182.867 59.0114 183.795 59.0114C184.477 59.0114 185.074 58.964 185.585 58.8693C186.097 58.7746 186.494 58.6989 186.778 58.642L188.312 65.6591C187.82 65.8485 187.119 66.0379 186.21 66.2273C185.301 66.4356 184.165 66.5492 182.801 66.5682C180.566 66.6061 178.483 66.2083 176.551 65.375C174.619 64.5417 173.057 63.2538 171.864 61.5114C170.67 59.7689 170.074 57.5814 170.074 54.9489V11.9091ZM210.634 66.792C208.639 66.792 207.084 66 205.97 64.416C204.855 62.832 204.679 60.28 205.442 56.76L212.746 24.904C212.922 24.024 212.57 23.584 211.69 23.584H208.346C207.524 23.584 207.114 23.2027 207.114 22.44C207.114 22.0293 207.26 21.7067 207.554 21.472C207.847 21.2373 208.199 21.12 208.61 21.12H211.778C213.127 21.12 213.919 20.504 214.154 19.272L216.266 9.856C216.442 9.21066 216.852 8.888 217.498 8.888H221.106C221.927 8.888 222.25 9.26933 222.074 10.032L219.874 19.8C219.698 20.68 220.05 21.12 220.93 21.12H225.946C226.943 21.12 227.442 21.5013 227.442 22.264C227.442 23.144 226.826 23.584 225.594 23.584H220.842C219.551 23.584 218.759 24.2 218.466 25.432L211.074 57.64C210.78 58.9307 210.81 59.9573 211.162 60.72C211.572 61.424 212.247 61.776 213.186 61.776C214.535 61.776 215.767 61.0133 216.882 59.488C218.055 57.9627 219.287 55.0587 220.578 50.776C220.812 50.0133 221.194 49.632 221.722 49.632C222.132 49.632 222.396 49.808 222.514 50.16C222.631 50.512 222.543 51.1573 222.25 52.096C221.135 56.0853 219.903 59.136 218.554 61.248C217.263 63.36 215.943 64.8267 214.594 65.648C213.244 66.4107 211.924 66.792 210.634 66.792ZM230.311 66.792C227.201 66.792 224.708 65.5893 222.831 63.184C220.953 60.72 220.015 57.2587 220.015 52.8C220.015 48.928 220.689 45.0853 222.039 41.272C223.447 37.4587 225.265 33.9973 227.495 30.888C229.724 27.7787 232.159 25.2853 234.799 23.408C237.497 21.5307 240.108 20.592 242.631 20.592C245.388 20.592 247.353 21.2667 248.527 22.616C249.759 23.9067 250.375 25.6667 250.375 27.896C250.375 30.536 249.436 33.176 247.559 35.816C245.74 38.3973 243.159 40.7147 239.815 42.768C236.529 44.8213 232.657 46.3467 228.199 47.344C226.908 47.6373 226.233 48.3707 226.175 49.544C226.116 49.9547 226.087 50.3947 226.087 50.864C226.087 51.2747 226.087 51.6853 226.087 52.096C226.087 55.44 226.644 57.9627 227.759 59.664C228.932 61.3653 230.516 62.216 232.511 62.216C234.74 62.216 236.881 61.1893 238.935 59.136C241.047 57.0827 242.807 54.1787 244.215 50.424C244.391 49.896 244.743 49.632 245.271 49.632C245.623 49.632 245.828 49.7787 245.887 50.072C246.004 50.3653 246.004 50.7173 245.887 51.128C244.009 56.2907 241.721 60.192 239.023 62.832C236.383 65.472 233.479 66.792 230.311 66.792ZM227.055 44C226.937 44.4107 226.996 44.7627 227.231 45.056C227.524 45.2907 227.876 45.3493 228.287 45.232C231.924 44.2347 234.975 42.7387 237.439 40.744C239.903 38.6907 241.751 36.4027 242.983 33.88C244.273 31.3573 244.919 28.8933 244.919 26.488C244.919 24.024 243.951 22.792 242.015 22.792C240.313 22.792 238.465 23.7893 236.471 25.784C234.476 27.7787 232.628 30.3893 230.927 33.616C229.225 36.8427 227.935 40.304 227.055 44ZM253.6 66.792C251.664 66.792 249.611 66.4987 247.44 65.912C245.328 65.3253 243.715 64.592 242.6 63.712C242.19 63.36 242.014 62.832 242.072 62.128L244.008 50.6C244.126 49.8373 244.478 49.456 245.064 49.456C245.71 49.456 246.032 49.8667 246.032 50.688L246.208 54.912C246.326 58.256 247.118 60.72 248.584 62.304C250.11 63.8293 251.958 64.592 254.128 64.592C256.006 64.592 257.619 64.0053 258.968 62.832C260.318 61.6 260.992 59.8107 260.992 57.464C260.992 56.1147 260.787 54.8827 260.376 53.768C259.966 52.5947 259.32 51.3627 258.44 50.072C257.56 48.7227 256.358 47.1093 254.832 45.232C252.838 42.6507 251.342 40.4507 250.344 38.632C249.406 36.7547 248.936 34.8187 248.936 32.824C248.936 29.128 250.08 26.1653 252.368 23.936C254.715 21.7067 257.678 20.592 261.256 20.592C262.84 20.592 264.366 20.8267 265.832 21.296C267.358 21.7653 268.619 22.4693 269.616 23.408C270.144 23.8187 270.32 24.3467 270.144 24.992L267.68 36.784C267.504 37.5467 267.152 37.928 266.624 37.928C266.096 37.928 265.774 37.5173 265.656 36.696L265.392 32.472C265.158 28.952 264.688 26.4293 263.984 24.904C263.339 23.3787 261.96 22.616 259.848 22.616C257.971 22.616 256.446 23.2613 255.272 24.552C254.099 25.8427 253.512 27.3973 253.512 29.216C253.512 31.152 254.04 32.9413 255.096 34.584C256.152 36.168 257.59 38.192 259.408 40.656C261.814 43.824 263.427 46.3467 264.248 48.224C265.128 50.1013 265.568 52.008 265.568 53.944C265.568 56.408 265.011 58.608 263.896 60.544C262.84 62.48 261.403 64.0053 259.584 65.12C257.766 66.2347 255.771 66.792 253.6 66.792ZM272.763 66.792C270.769 66.792 269.214 66 268.099 64.416C266.985 62.832 266.809 60.28 267.571 56.76L274.875 24.904C275.051 24.024 274.699 23.584 273.819 23.584H270.475C269.654 23.584 269.243 23.2027 269.243 22.44C269.243 22.0293 269.39 21.7067 269.683 21.472C269.977 21.2373 270.329 21.12 270.739 21.12H273.907C275.257 21.12 276.049 20.504 276.283 19.272L278.395 9.856C278.571 9.21066 278.982 8.888 279.627 8.888H283.235C284.057 8.888 284.379 9.26933 284.203 10.032L282.003 19.8C281.827 20.68 282.179 21.12 283.059 21.12H288.075C289.073 21.12 289.571 21.5013 289.571 22.264C289.571 23.144 288.955 23.584 287.723 23.584H282.971C281.681 23.584 280.889 24.2 280.595 25.432L273.203 57.64C272.91 58.9307 272.939 59.9573 273.291 60.72C273.702 61.424 274.377 61.776 275.315 61.776C276.665 61.776 277.897 61.0133 279.011 59.488C280.185 57.9627 281.417 55.0587 282.707 50.776C282.942 50.0133 283.323 49.632 283.851 49.632C284.262 49.632 284.526 49.808 284.643 50.16C284.761 50.512 284.673 51.1573 284.379 52.096C283.265 56.0853 282.033 59.136 280.683 61.248C279.393 63.36 278.073 64.8267 276.723 65.648C275.374 66.4107 274.054 66.792 272.763 66.792ZM299.556 12.76C298.441 12.76 297.502 12.3787 296.74 11.616C296.036 10.7947 295.684 9.82666 295.684 8.712C295.684 7.128 296.153 5.86666 297.092 4.928C298.089 3.98933 299.204 3.52 300.436 3.52C301.609 3.52 302.577 3.90133 303.34 4.664C304.161 5.368 304.572 6.30666 304.572 7.48C304.572 9.12266 304.073 10.4133 303.076 11.352C302.078 12.2907 300.905 12.76 299.556 12.76ZM292.34 66.88C290.404 66.88 289.025 66.176 288.204 64.768C287.382 63.3013 287.353 60.9253 288.116 57.64L294.628 29.744C294.921 28.4533 294.95 27.456 294.716 26.752C294.54 25.9893 294.012 25.608 293.132 25.608C292.076 25.608 290.902 26.4 289.612 27.984C288.38 29.5093 286.972 32.4427 285.388 36.784C285.153 37.5467 284.742 37.928 284.156 37.928C283.276 37.928 283.041 37.4 283.452 36.344C284.742 32.296 286.092 29.128 287.5 26.84C288.966 24.552 290.433 22.9387 291.9 22C293.366 21.0613 294.716 20.592 295.948 20.592C298.001 20.592 299.438 21.3253 300.26 22.792C301.081 24.2 301.11 26.5467 300.348 29.832L293.836 57.728C293.542 59.0187 293.484 60.0453 293.66 60.808C293.894 61.512 294.452 61.864 295.332 61.864C296.388 61.864 297.532 61.1013 298.764 59.576C300.054 57.992 301.492 55.0293 303.076 50.688C303.31 49.9253 303.721 49.544 304.308 49.544C305.188 49.544 305.422 50.072 305.012 51.128C303.78 55.1173 302.401 58.2853 300.876 60.632C299.409 62.92 297.942 64.5333 296.476 65.472C295.009 66.4107 293.63 66.88 292.34 66.88ZM352.803 66.792C350.691 66.792 349.107 65.912 348.051 64.152C346.995 62.392 346.937 59.664 347.875 55.968L354.651 30.448C355.297 28.16 355.385 26.576 354.915 25.696C354.505 24.816 353.889 24.376 353.067 24.376C351.894 24.376 350.545 25.1973 349.019 26.84C347.494 28.424 345.881 30.5947 344.179 33.352C342.537 36.1093 340.923 39.248 339.339 42.768C337.755 46.288 336.289 49.9547 334.939 53.768C333.59 57.5813 332.475 61.336 331.595 65.032C331.419 65.6773 331.009 66 330.363 66H326.931C326.11 66 325.787 65.6187 325.963 64.856L334.059 30.448C334.587 28.16 334.646 26.576 334.235 25.696C333.883 24.816 333.297 24.376 332.475 24.376C331.361 24.376 330.041 25.1973 328.515 26.84C326.99 28.424 325.406 30.5947 323.763 33.352C322.121 36.1093 320.507 39.248 318.923 42.768C317.339 46.288 315.873 49.9547 314.523 53.768C313.174 57.5813 312.089 61.336 311.267 65.032C311.091 65.6773 310.681 66 310.035 66H306.427C305.606 66 305.283 65.6187 305.459 64.856L313.819 29.744C314.113 28.4533 314.142 27.456 313.907 26.752C313.731 25.9893 313.203 25.608 312.323 25.608C311.267 25.608 310.094 26.4 308.803 27.984C307.571 29.5093 306.163 32.4427 304.579 36.784C304.345 37.5467 303.934 37.928 303.347 37.928C302.467 37.928 302.233 37.4 302.643 36.344C303.934 32.296 305.283 29.128 306.691 26.84C308.158 24.552 309.625 22.9387 311.091 22C312.558 21.0613 313.907 20.592 315.139 20.592C317.075 20.592 318.454 21.3253 319.275 22.792C320.097 24.2 320.126 26.5467 319.363 29.832L317.163 39.336C317.105 39.7467 317.193 39.9813 317.427 40.04C317.662 40.0987 317.867 39.952 318.043 39.6C321.446 32.56 324.526 27.632 327.283 24.816C330.041 22 332.563 20.592 334.851 20.592C337.022 20.592 338.547 21.472 339.427 23.232C340.366 24.992 340.425 27.6907 339.603 31.328L337.755 39.336C337.697 39.7467 337.785 39.9813 338.019 40.04C338.254 40.0987 338.459 39.952 338.635 39.6C340.865 34.848 342.947 31.0933 344.883 28.336C346.878 25.52 348.755 23.5253 350.515 22.352C352.275 21.1787 353.918 20.592 355.443 20.592C357.614 20.592 359.198 21.472 360.195 23.232C361.193 24.992 361.193 27.6907 360.195 31.328L353.507 56.848C353.097 58.4907 353.067 59.7227 353.419 60.544C353.771 61.3653 354.417 61.776 355.355 61.776C356.529 61.776 357.673 61.0133 358.787 59.488C359.961 57.904 361.163 54.9413 362.395 50.6C362.571 49.9547 362.953 49.632 363.539 49.632C364.009 49.632 364.273 49.808 364.331 50.16C364.449 50.512 364.449 50.9227 364.331 51.392C363.217 55.3813 362.014 58.52 360.723 60.808C359.433 63.0373 358.113 64.592 356.763 65.472C355.473 66.352 354.153 66.792 352.803 66.792ZM373.758 66.792C370.12 66.792 367.246 65.296 365.134 62.304C363.022 59.2533 361.966 55.1467 361.966 49.984C361.966 46.1707 362.582 42.504 363.814 38.984C365.046 35.464 366.659 32.3253 368.654 29.568C370.707 26.8107 372.966 24.64 375.43 23.056C377.952 21.4133 380.475 20.592 382.998 20.592C386.635 20.592 389.51 22.088 391.622 25.08C393.734 28.072 394.79 32.1787 394.79 37.4C394.79 41.2133 394.174 44.88 392.942 48.4C391.71 51.92 390.067 55.0587 388.014 57.816C386.019 60.5733 383.76 62.7733 381.238 64.416C378.774 66 376.28 66.792 373.758 66.792ZM373.582 64.68C375.459 64.68 377.278 63.7707 379.038 61.952C380.856 60.1333 382.499 57.728 383.966 54.736C385.432 51.744 386.606 48.4293 387.486 44.792C388.366 41.096 388.806 37.4 388.806 33.704C388.806 26.3707 386.899 22.704 383.086 22.704C381.267 22.704 379.448 23.6133 377.63 25.432C375.811 27.192 374.168 29.568 372.702 32.56C371.294 35.552 370.15 38.896 369.27 42.592C368.39 46.2293 367.95 49.896 367.95 53.592C367.95 60.984 369.827 64.68 373.582 64.68ZM395.147 64.856L403.507 29.744C403.8 28.4533 403.83 27.456 403.595 26.752C403.419 25.9893 402.891 25.608 402.011 25.608C400.955 25.608 399.782 26.4 398.491 27.984C397.259 29.5093 395.851 32.4427 394.267 36.784C394.032 37.5467 393.622 37.928 393.035 37.928C392.155 37.928 391.92 37.4 392.331 36.344C393.622 32.296 394.971 29.128 396.379 26.84C397.846 24.552 399.312 22.9387 400.779 22C402.246 21.0613 403.595 20.592 404.827 20.592C406.763 20.592 408.142 21.3253 408.963 22.792C409.784 24.2 409.814 26.5467 409.051 29.832L406.851 39.336C406.792 39.7467 406.88 39.9813 407.115 40.04C407.35 40.0987 407.555 39.952 407.731 39.6C410.019 34.848 412.219 31.0933 414.331 28.336C416.443 25.52 418.438 23.5253 420.315 22.352C422.192 21.1787 423.894 20.592 425.419 20.592C427.59 20.592 429.174 21.472 430.171 23.232C431.168 24.992 431.168 27.6907 430.171 31.328L423.483 56.848C423.072 58.4907 423.043 59.7227 423.395 60.544C423.747 61.3653 424.392 61.776 425.331 61.776C426.504 61.776 427.648 61.0133 428.763 59.488C429.936 57.904 431.139 54.9413 432.371 50.6C432.547 49.9547 432.928 49.632 433.515 49.632C433.984 49.632 434.248 49.808 434.307 50.16C434.424 50.512 434.424 50.9227 434.307 51.392C433.192 55.3813 431.99 58.52 430.699 60.808C429.408 63.0373 428.088 64.592 426.739 65.472C425.448 66.352 424.128 66.792 422.779 66.792C420.667 66.792 419.083 65.912 418.027 64.152C416.971 62.392 416.912 59.664 417.851 55.968L424.627 30.448C425.272 28.16 425.36 26.576 424.891 25.696C424.48 24.816 423.864 24.376 423.043 24.376C421.752 24.376 420.286 25.1973 418.643 26.84C417 28.424 415.328 30.624 413.627 33.44C411.926 36.1973 410.254 39.336 408.611 42.856C406.968 46.376 405.472 50.0427 404.123 53.856C402.832 57.6693 401.776 61.3947 400.955 65.032C400.779 65.6773 400.368 66 399.723 66H396.115C395.294 66 394.971 65.6187 395.147 64.856ZM448.166 12.76C447.051 12.76 446.112 12.3787 445.35 11.616C444.646 10.7947 444.294 9.82666 444.294 8.712C444.294 7.128 444.763 5.86666 445.702 4.928C446.699 3.98933 447.814 3.52 449.046 3.52C450.219 3.52 451.187 3.90133 451.95 4.664C452.771 5.368 453.182 6.30666 453.182 7.48C453.182 9.12266 452.683 10.4133 451.686 11.352C450.688 12.2907 449.515 12.76 448.166 12.76ZM440.95 66.88C439.014 66.88 437.635 66.176 436.814 64.768C435.992 63.3013 435.963 60.9253 436.726 57.64L443.238 29.744C443.531 28.4533 443.56 27.456 443.326 26.752C443.15 25.9893 442.622 25.608 441.742 25.608C440.686 25.608 439.512 26.4 438.222 27.984C436.99 29.5093 435.582 32.4427 433.998 36.784C433.763 37.5467 433.352 37.928 432.766 37.928C431.886 37.928 431.651 37.4 432.062 36.344C433.352 32.296 434.702 29.128 436.11 26.84C437.576 24.552 439.043 22.9387 440.51 22C441.976 21.0613 443.326 20.592 444.558 20.592C446.611 20.592 448.048 21.3253 448.87 22.792C449.691 24.2 449.72 26.5467 448.958 29.832L442.446 57.728C442.152 59.0187 442.094 60.0453 442.27 60.808C442.504 61.512 443.062 61.864 443.942 61.864C444.998 61.864 446.142 61.1013 447.374 59.576C448.664 57.992 450.102 55.0293 451.686 50.688C451.92 49.9253 452.331 49.544 452.918 49.544C453.798 49.544 454.032 50.072 453.622 51.128C452.39 55.1173 451.011 58.2853 449.486 60.632C448.019 62.92 446.552 64.5333 445.086 65.472C443.619 66.4107 442.24 66.88 440.95 66.88ZM457.237 66.792C455.125 66.792 453.483 65.8827 452.309 64.064C451.136 62.2453 450.549 59.576 450.549 56.056C450.549 52.712 451.019 49.368 451.957 46.024C452.896 42.6213 454.187 39.3947 455.829 36.344C457.472 33.2933 459.32 30.5947 461.373 28.248C463.485 25.9013 465.685 24.0533 467.973 22.704C470.32 21.296 472.637 20.592 474.925 20.592C476.04 20.592 477.096 20.8267 478.093 21.296C479.091 21.7067 479.912 22.3813 480.557 23.32C480.909 23.848 481.261 24.112 481.613 24.112C481.965 24.112 482.317 23.848 482.669 23.32C483.315 22.3813 483.843 21.7947 484.253 21.56C484.664 21.2667 485.045 21.12 485.397 21.12C486.16 21.12 486.453 21.5307 486.277 22.352L478.445 56.056C477.565 59.8693 478.152 61.776 480.205 61.776C481.555 61.776 482.757 60.8667 483.813 59.048C484.928 57.2293 486.043 54.4133 487.157 50.6C487.333 49.9547 487.715 49.632 488.301 49.632C488.712 49.632 488.976 49.808 489.093 50.16C489.211 50.512 489.211 50.9227 489.093 51.392C487.979 56.9067 486.483 60.8667 484.605 63.272C482.728 65.6187 480.469 66.792 477.829 66.792C475.541 66.792 473.899 65.824 472.901 63.888C471.963 61.952 471.875 59.312 472.637 55.968L473.781 51.128C473.899 50.7173 473.811 50.4827 473.517 50.424C473.283 50.3653 473.077 50.512 472.901 50.864C469.675 56.7893 466.8 60.9253 464.277 63.272C461.813 65.6187 459.467 66.792 457.237 66.792ZM459.437 62.304C460.845 62.304 462.4 61.4533 464.101 59.752C465.803 58.0507 467.475 55.8507 469.117 53.152C470.819 50.4533 472.373 47.5493 473.781 44.44C475.189 41.3307 476.304 38.3387 477.125 35.464C478.005 32.5893 478.445 30.1547 478.445 28.16C478.445 24.5813 477.184 22.792 474.661 22.792C473.136 22.792 471.523 23.496 469.821 24.904C468.12 26.2533 466.477 28.1013 464.893 30.448C463.368 32.7947 461.96 35.464 460.669 38.456C459.437 41.3893 458.44 44.4693 457.677 47.696C456.915 50.864 456.533 53.9733 456.533 57.024C456.533 59.0773 456.768 60.4853 457.237 61.248C457.765 61.952 458.499 62.304 459.437 62.304ZM491.437 66.88C489.501 66.88 488.122 66.176 487.301 64.768C486.48 63.3013 486.45 60.9253 487.213 57.64L498.389 9.68C498.682 8.624 498.682 7.89066 498.389 7.48C498.154 7.06933 497.626 6.83466 496.805 6.776L494.165 6.51199C493.285 6.45333 492.904 6.072 493.021 5.368C493.138 4.84 493.549 4.51733 494.253 4.4C496.365 4.048 498.242 3.63733 499.885 3.168C501.528 2.64 502.848 1.96533 503.845 1.144C504.314 0.791997 504.754 0.615997 505.165 0.615997C505.869 0.615997 506.133 1.056 505.957 1.936L492.933 57.728C492.64 59.0187 492.581 60.0453 492.757 60.808C492.992 61.512 493.549 61.864 494.429 61.864C495.485 61.864 496.629 61.1013 497.861 59.576C499.152 57.992 500.589 55.0293 502.173 50.688C502.408 49.9253 502.818 49.544 503.405 49.544C504.285 49.544 504.52 50.072 504.109 51.128C502.877 55.1173 501.498 58.2853 499.973 60.632C498.506 62.92 497.04 64.5333 495.573 65.472C494.106 66.4107 492.728 66.88 491.437 66.88ZM510.114 66.792C508.178 66.792 506.124 66.4987 503.954 65.912C501.842 65.3253 500.228 64.592 499.114 63.712C498.703 63.36 498.527 62.832 498.586 62.128L500.522 50.6C500.639 49.8373 500.991 49.456 501.578 49.456C502.223 49.456 502.546 49.8667 502.546 50.688L502.722 54.912C502.839 58.256 503.631 60.72 505.098 62.304C506.623 63.8293 508.471 64.592 510.642 64.592C512.519 64.592 514.132 64.0053 515.482 62.832C516.831 61.6 517.506 59.8107 517.506 57.464C517.506 56.1147 517.3 54.8827 516.89 53.768C516.479 52.5947 515.834 51.3627 514.954 50.072C514.074 48.7227 512.871 47.1093 511.346 45.232C509.351 42.6507 507.855 40.4507 506.858 38.632C505.919 36.7547 505.45 34.8187 505.45 32.824C505.45 29.128 506.594 26.1653 508.882 23.936C511.228 21.7067 514.191 20.592 517.77 20.592C519.354 20.592 520.879 20.8267 522.346 21.296C523.871 21.7653 525.132 22.4693 526.13 23.408C526.658 23.8187 526.834 24.3467 526.658 24.992L524.194 36.784C524.018 37.5467 523.666 37.928 523.138 37.928C522.61 37.928 522.287 37.5173 522.17 36.696L521.906 32.472C521.671 28.952 521.202 26.4293 520.498 24.904C519.852 23.3787 518.474 22.616 516.362 22.616C514.484 22.616 512.959 23.2613 511.786 24.552C510.612 25.8427 510.026 27.3973 510.026 29.216C510.026 31.152 510.554 32.9413 511.61 34.584C512.666 36.168 514.103 38.192 515.922 40.656C518.327 43.824 519.94 46.3467 520.762 48.224C521.642 50.1013 522.082 52.008 522.082 53.944C522.082 56.408 521.524 58.608 520.41 60.544C519.354 62.48 517.916 64.0053 516.098 65.12C514.279 66.2347 512.284 66.792 510.114 66.792Z" fill="#101820"/>
</svg>
