<svg width="24" height="24" viewBox="0 0 24 24" fill="none" xmlns="http://www.w3.org/2000/svg">
<mask id="mask0_52_94" style="mask-type:luminance" maskUnits="userSpaceOnUse" x="0" y="0" width="24" height="24">
<path d="M24 0H0V24H24V0Z" fill="white"/>
</mask>
<g mask="url(#mask0_52_94)">
<path d="M17.77 22H6.22995L0.449951 12L6.22995 2H17.78L23.5499 12L17.78 22H17.77ZM7.37995 20H16.62L21.24 12L16.62 4H7.37995L2.75995 12L7.37995 20Z" fill="#101820"/>
<path d="M12.0001 17.9999C10.6601 17.9999 9.41006 17.4799 8.46006 16.5399C6.51006 14.5899 6.51006 11.4199 8.46006 9.46993L12.0001 5.92993L15.5401 9.46993C17.4901 11.4199 17.4901 14.5899 15.5401 16.5399C14.6001 17.4799 13.3401 17.9999 12.0001 17.9999ZM12.0001 8.75993L9.88006 10.8799C8.71006 12.0499 8.71006 13.9499 9.88006 15.1199C11.0101 16.2499 12.9901 16.2499 14.1201 15.1199C15.2501 13.9899 15.2901 12.0499 14.1201 10.8799L12.0001 8.75993Z" fill="#386AF3"/>
</g>
</svg>
