<svg width="469" height="207" viewBox="0 0 469 207" fill="none" xmlns="http://www.w3.org/2000/svg">
<path d="M13.7186 4.81818V95H0.112047V4.81818H13.7186ZM23.7971 95V27.3636H36.4349V38.3722H37.2715C38.6806 34.6439 40.9851 31.7377 44.1849 29.6534C47.3847 27.5398 51.2157 26.483 55.6778 26.483C60.1986 26.483 63.9856 27.5398 67.0386 29.6534C70.121 31.767 72.3961 34.6733 73.8639 38.3722H74.5684C76.183 34.7614 78.7516 31.8845 82.2744 29.7415C85.7971 27.5691 89.995 26.483 94.8681 26.483C101.004 26.483 106.009 28.4058 109.884 32.2514C113.788 36.0971 115.74 41.8949 115.74 49.6449V95H102.574V50.8778C102.574 46.2983 101.326 42.9811 98.8312 40.9261C96.3359 38.8712 93.3563 37.8438 89.8923 37.8438C85.6063 37.8438 82.2744 39.1648 79.8965 41.8068C77.5187 44.4195 76.3298 47.7808 76.3298 51.8906V95H63.2076V50.0412C63.2076 46.3717 62.0627 43.4214 59.773 41.1903C57.4832 38.9593 54.5035 37.8438 50.834 37.8438C48.3388 37.8438 46.0343 38.5043 43.9207 39.8253C41.8364 41.1169 40.1484 42.9223 38.8568 45.2415C37.5945 47.5606 36.9633 50.2467 36.9633 53.2997V95H23.7971ZM124.707 120.364V27.3636H137.565V38.3281H138.666C139.429 36.919 140.53 35.2898 141.968 33.4403C143.407 31.5909 145.403 29.9763 147.957 28.5966C150.511 27.1875 153.887 26.483 158.085 26.483C163.545 26.483 168.418 27.8627 172.704 30.6222C176.99 33.3816 180.351 37.3594 182.788 42.5554C185.254 47.7514 186.487 54.0043 186.487 61.3139C186.487 68.6236 185.269 74.8911 182.832 80.1165C180.395 85.3125 177.049 89.3196 172.792 92.1378C168.536 94.9266 163.677 96.321 158.217 96.321C154.107 96.321 150.746 95.6312 148.133 94.2514C145.55 92.8717 143.524 91.2571 142.056 89.4077C140.589 87.5582 139.458 85.9143 138.666 84.4759H137.873V120.364H124.707ZM137.609 61.1818C137.609 65.9375 138.299 70.1061 139.679 73.6875C141.058 77.2689 143.054 80.0724 145.667 82.098C148.28 84.0942 151.48 85.0923 155.267 85.0923C159.2 85.0923 162.488 84.0502 165.13 81.9659C167.772 79.8523 169.769 76.9901 171.119 73.3793C172.499 69.7685 173.188 65.7027 173.188 61.1818C173.188 56.7197 172.513 52.7126 171.163 49.1605C169.842 45.6084 167.846 42.8049 165.174 40.75C162.532 38.6951 159.23 37.6676 155.267 37.6676C151.45 37.6676 148.221 38.651 145.579 40.6179C142.966 42.5848 140.985 45.3295 139.635 48.8523C138.284 52.375 137.609 56.4848 137.609 61.1818ZM212.241 96.4972C207.955 96.4972 204.08 95.7045 200.616 94.1193C197.152 92.5047 194.408 90.1709 192.382 87.1179C190.386 84.0649 189.388 80.322 189.388 75.8892C189.388 72.0729 190.122 68.9318 191.589 66.4659C193.057 64 195.039 62.0478 197.534 60.6094C200.029 59.1709 202.818 58.0848 205.901 57.3509C208.983 56.617 212.124 56.0592 215.324 55.6776C219.375 55.2079 222.663 54.8262 225.187 54.5327C227.712 54.2098 229.547 53.696 230.692 52.9915C231.837 52.2869 232.409 51.142 232.409 49.5568V49.2486C232.409 45.4029 231.323 42.4233 229.151 40.3097C227.008 38.196 223.808 37.1392 219.551 37.1392C215.118 37.1392 211.625 38.1226 209.071 40.0895C206.546 42.027 204.8 44.1847 203.831 46.5625L191.457 43.7443C192.925 39.6345 195.068 36.3172 197.886 33.7926C200.734 31.2386 204.007 29.3892 207.706 28.2443C211.405 27.0701 215.294 26.483 219.375 26.483C222.076 26.483 224.938 26.8059 227.962 27.4517C231.015 28.0682 233.862 29.2131 236.504 30.8864C239.176 32.5597 241.363 34.9522 243.065 38.0639C244.768 41.1463 245.619 45.1534 245.619 50.0852V95H232.761V85.7528H232.233C231.382 87.4555 230.105 89.1288 228.402 90.7727C226.699 92.4167 224.512 93.7817 221.841 94.8679C219.169 95.9541 215.97 96.4972 212.241 96.4972ZM215.104 85.929C218.744 85.929 221.856 85.2098 224.439 83.7713C227.052 82.3329 229.033 80.4541 230.383 78.1349C231.763 75.7865 232.453 73.2765 232.453 70.6051V61.8864C231.983 62.3561 231.073 62.7964 229.723 63.2074C228.402 63.589 226.89 63.9266 225.187 64.2202C223.485 64.4844 221.826 64.7339 220.212 64.9688C218.597 65.1742 217.247 65.3504 216.16 65.4972C213.606 65.8201 211.273 66.3632 209.159 67.1264C207.075 67.8897 205.401 68.9905 204.139 70.429C202.906 71.8381 202.29 73.7169 202.29 76.0653C202.29 79.3239 203.493 81.7898 205.901 83.4631C208.308 85.107 211.375 85.929 215.104 85.929ZM282.966 96.3651C276.42 96.3651 270.783 94.8826 266.057 91.9176C261.36 88.9233 257.749 84.7988 255.224 79.544C252.7 74.2893 251.438 68.2713 251.438 61.4901C251.438 54.6207 252.729 48.5587 255.312 43.304C257.896 38.0199 261.536 33.8954 266.233 30.9304C270.93 27.9654 276.464 26.483 282.834 26.483C287.971 26.483 292.551 27.437 296.572 29.3452C300.594 31.224 303.838 33.866 306.304 37.2713C308.799 40.6766 310.282 44.6544 310.751 49.2045H297.938C297.233 46.0341 295.618 43.304 293.094 41.0142C290.598 38.7244 287.252 37.5795 283.054 37.5795C279.384 37.5795 276.17 38.5483 273.411 40.4858C270.68 42.3939 268.552 45.1241 267.026 48.6761C265.499 52.1989 264.736 56.3674 264.736 61.1818C264.736 66.1136 265.484 70.3703 266.982 73.9517C268.479 77.5331 270.592 80.3073 273.322 82.2741C276.082 84.241 279.326 85.2244 283.054 85.2244C285.549 85.2244 287.81 84.7694 289.835 83.8594C291.89 82.92 293.607 81.5843 294.987 79.8523C296.396 78.1203 297.38 76.036 297.938 73.5994H310.751C310.282 77.9735 308.858 81.8778 306.48 85.3125C304.102 88.7472 300.917 91.4479 296.925 93.4148C292.962 95.3816 288.309 96.3651 282.966 96.3651ZM347.724 27.3636V37.9318H310.779V27.3636H347.724ZM320.687 11.1591H333.853V75.1406C333.853 77.6946 334.235 79.6174 334.998 80.9091C335.761 82.1714 336.745 83.0374 337.948 83.5071C339.181 83.9474 340.517 84.1676 341.955 84.1676C343.012 84.1676 343.937 84.0942 344.729 83.9474C345.522 83.8007 346.139 83.6832 346.579 83.5952L348.957 94.4716C348.193 94.7652 347.107 95.0587 345.698 95.3523C344.289 95.6752 342.528 95.8513 340.414 95.8807C336.95 95.9394 333.721 95.3229 330.727 94.0312C327.732 92.7396 325.31 90.7434 323.461 88.0426C321.612 85.3419 320.687 81.9512 320.687 77.8707V11.1591ZM385.797 27.3636V37.9318H347.575V27.3636H385.797ZM358.055 95V19.5256C358.055 15.2983 358.98 11.7902 360.83 9.00142C362.679 6.18324 365.13 4.08428 368.183 2.70454C371.236 1.29545 374.554 0.590903 378.135 0.590903C380.777 0.590903 383.037 0.811075 384.916 1.25142C386.795 1.6624 388.189 2.04403 389.1 2.3963L386.017 13.0526C385.401 12.8764 384.608 12.6709 383.639 12.4361C382.671 12.1719 381.496 12.0398 380.117 12.0398C376.917 12.0398 374.627 12.8324 373.247 14.4176C371.897 16.0028 371.222 18.2926 371.222 21.2869V95H358.055ZM433.547 66.9503V27.3636H446.757V95H433.811V83.2869H433.106C431.55 86.8977 429.055 89.9067 425.621 92.3139C422.215 94.6918 417.973 95.8807 412.895 95.8807C408.55 95.8807 404.704 94.9266 401.358 93.0185C398.04 91.081 395.428 88.2188 393.52 84.4318C391.641 80.6449 390.701 75.9626 390.701 70.3849V27.3636H403.868V68.7997C403.868 73.4086 405.145 77.0781 407.699 79.8082C410.253 82.5384 413.57 83.9034 417.65 83.9034C420.116 83.9034 422.567 83.2869 425.004 82.054C427.47 80.821 429.51 78.9569 431.125 76.4616C432.769 73.9664 433.576 70.7959 433.547 66.9503ZM468.934 4.81818V95H455.768V4.81818H468.934ZM44.0659 206.188C41.6019 206.188 38.9619 205.924 36.1459 205.396C33.4179 204.868 30.8219 204.164 28.3579 203.284C25.9819 202.316 24.0899 201.216 22.6819 199.984C22.2419 199.544 21.9339 199.104 21.7579 198.664C21.6699 198.224 21.7139 197.564 21.8899 196.684L25.5859 175.96C25.8499 174.376 26.5539 173.584 27.6979 173.584C28.7539 173.584 29.2819 174.464 29.2819 176.224L29.4139 181.372C29.5899 188.764 30.8659 194.088 33.2419 197.344C35.6179 200.6 39.4899 202.228 44.8579 202.228C49.7859 202.228 53.8779 200.468 57.1339 196.948C60.3899 193.34 62.0179 188.544 62.0179 182.56C62.0179 178.688 60.9619 174.64 58.8499 170.416C56.7379 166.192 53.7899 161.968 50.0059 157.744C45.5179 152.728 42.1739 148.152 39.9739 144.016C37.8619 139.88 36.8059 135.524 36.8059 130.948C36.8059 127.34 37.6859 123.864 39.4459 120.52C41.2059 117.088 43.8459 114.272 47.3659 112.072C50.9739 109.784 55.5499 108.64 61.0939 108.64C68.7499 108.64 74.6019 110.356 78.6499 113.788C79.8819 114.756 80.3219 116.208 79.9699 118.144L76.2739 137.416C76.0099 138.736 75.3939 139.396 74.4259 139.396C73.4579 139.396 72.8859 138.648 72.7099 137.152L72.5779 134.38C72.2259 127.252 71.2139 121.84 69.5419 118.144C67.9579 114.36 64.7459 112.468 59.9059 112.468C56.3859 112.468 53.5699 113.26 51.4579 114.844C49.3459 116.428 47.8059 118.408 46.8379 120.784C45.8699 123.072 45.3859 125.36 45.3859 127.648C45.3859 130.2 45.7379 132.664 46.4419 135.04C47.1459 137.328 48.3339 139.792 50.0059 142.432C51.7659 144.984 54.1419 148.108 57.1339 151.804C61.3579 156.82 64.6579 161.616 67.0339 166.192C69.4099 170.768 70.5979 175.212 70.5979 179.524C70.5979 184.716 69.4099 189.336 67.0339 193.384C64.7459 197.344 61.6219 200.468 57.6619 202.756C53.7019 205.044 49.1699 206.188 44.0659 206.188ZM94.8632 206.188C89.4072 206.188 85.0952 203.944 81.9272 199.456C78.7592 194.88 77.1752 188.72 77.1752 180.976C77.1752 175.256 78.0992 169.756 79.9472 164.476C81.7952 159.196 84.2152 154.488 87.2072 150.352C90.2872 146.216 93.6752 142.96 97.3712 140.584C101.155 138.12 104.939 136.888 108.723 136.888C114.179 136.888 118.491 139.132 121.659 143.62C124.827 148.108 126.411 154.268 126.411 162.1C126.411 167.82 125.487 173.32 123.639 178.6C121.791 183.88 119.327 188.588 116.247 192.724C113.255 196.86 109.867 200.16 106.083 202.624C102.387 205 98.6472 206.188 94.8632 206.188ZM94.5992 203.02C97.4152 203.02 100.143 201.656 102.783 198.928C105.511 196.2 107.975 192.592 110.175 188.104C112.375 183.616 114.135 178.644 115.455 173.188C116.775 167.644 117.435 162.1 117.435 156.556C117.435 145.556 114.575 140.056 108.855 140.056C106.127 140.056 103.399 141.42 100.671 144.148C97.9432 146.788 95.4792 150.352 93.2792 154.84C91.1672 159.328 89.4512 164.344 88.1312 169.888C86.8112 175.344 86.1512 180.844 86.1512 186.388C86.1512 197.476 88.9672 203.02 94.5992 203.02ZM136.319 206.32C133.415 206.32 131.347 205.264 130.115 203.152C128.883 200.952 128.839 197.388 129.983 192.46L146.747 120.52C147.187 118.936 147.187 117.836 146.747 117.22C146.395 116.604 145.603 116.252 144.371 116.164L140.411 115.768C139.091 115.68 138.519 115.108 138.695 114.052C138.871 113.26 139.487 112.776 140.543 112.6C143.711 112.072 146.527 111.456 148.991 110.752C151.455 109.96 153.435 108.948 154.931 107.716C155.635 107.188 156.295 106.924 156.911 106.924C157.967 106.924 158.363 107.584 158.099 108.904L138.563 192.592C138.123 194.528 138.035 196.068 138.299 197.212C138.651 198.268 139.487 198.796 140.807 198.796C142.391 198.796 144.107 197.652 145.955 195.364C147.891 192.988 150.047 188.544 152.423 182.032C152.775 180.888 153.391 180.316 154.271 180.316C155.591 180.316 155.943 181.108 155.327 182.692C153.479 188.676 151.411 193.428 149.123 196.948C146.923 200.38 144.723 202.8 142.523 204.208C140.323 205.616 138.255 206.32 136.319 206.32ZM170.802 206.188C167.546 206.188 165.302 204.736 164.07 201.832C162.926 198.84 163.014 194.924 164.334 190.084L174.762 151.804C175.466 149.252 175.642 147.272 175.29 145.864C174.938 144.456 174.146 143.752 172.914 143.752C170.89 143.752 168.822 145.292 166.71 148.372C164.686 151.452 162.926 155.72 161.43 161.176C161.166 162.144 160.594 162.628 159.714 162.628C158.482 162.628 158.086 161.748 158.526 159.988C160.55 152.596 163.19 146.92 166.446 142.96C169.79 138.912 173.442 136.888 177.402 136.888C180.57 136.888 182.682 138.34 183.738 141.244C184.794 144.148 184.618 148.108 183.21 153.124L172.65 191.404C170.978 197.476 171.55 200.512 174.366 200.512C176.126 200.512 178.15 199.324 180.438 196.948C182.726 194.572 185.102 191.316 187.566 187.18C190.118 183.044 192.626 178.336 195.09 173.056C197.554 167.776 199.798 162.232 201.822 156.424C203.846 150.616 205.518 144.852 206.838 139.132C207.102 138.164 207.718 137.68 208.686 137.68H213.966C215.198 137.68 215.682 138.252 215.418 139.396L203.01 192.46C202.042 196.596 202.79 198.664 205.254 198.664C208.95 198.664 212.822 193.076 216.87 181.9C217.222 180.756 217.838 180.184 218.718 180.184C219.246 180.184 219.598 180.404 219.774 180.844C220.038 181.284 220.038 181.856 219.774 182.56C217.398 190.04 214.582 195.848 211.326 199.984C208.07 204.12 204.638 206.188 201.03 206.188C194.694 206.188 192.582 201.568 194.694 192.328L198.126 177.676C198.302 177.06 198.17 176.708 197.73 176.62C197.378 176.532 197.07 176.752 196.806 177.28C191.702 187.84 186.994 195.32 182.682 199.72C178.37 204.032 174.41 206.188 170.802 206.188ZM233.478 206.188C230.486 206.188 228.154 205 226.482 202.624C224.81 200.248 224.546 196.42 225.69 191.14L236.646 143.356C236.91 142.036 236.382 141.376 235.062 141.376H230.046C228.814 141.376 228.198 140.804 228.198 139.66C228.198 139.044 228.418 138.56 228.858 138.208C229.298 137.856 229.826 137.68 230.442 137.68H235.194C237.218 137.68 238.406 136.756 238.758 134.908L241.926 120.784C242.19 119.816 242.806 119.332 243.774 119.332H249.186C250.418 119.332 250.902 119.904 250.638 121.048L247.338 135.7C247.074 137.02 247.602 137.68 248.922 137.68H256.446C257.942 137.68 258.69 138.252 258.69 139.396C258.69 140.716 257.766 141.376 255.918 141.376H248.79C246.854 141.376 245.666 142.3 245.226 144.148L234.138 192.46C233.698 194.396 233.742 195.936 234.27 197.08C234.886 198.136 235.898 198.664 237.306 198.664C239.33 198.664 241.178 197.52 242.85 195.232C244.61 192.944 246.458 188.588 248.394 182.164C248.746 181.02 249.318 180.448 250.11 180.448C250.726 180.448 251.122 180.712 251.298 181.24C251.474 181.768 251.342 182.736 250.902 184.144C249.23 190.128 247.382 194.704 245.358 197.872C243.422 201.04 241.442 203.24 239.418 204.472C237.394 205.616 235.414 206.188 233.478 206.188ZM280.267 125.14C278.595 125.14 277.187 124.568 276.043 123.424C274.987 122.192 274.459 120.74 274.459 119.068C274.459 116.692 275.163 114.8 276.571 113.392C278.067 111.984 279.739 111.28 281.587 111.28C283.347 111.28 284.799 111.852 285.943 112.996C287.175 114.052 287.791 115.46 287.791 117.22C287.791 119.684 287.043 121.62 285.547 123.028C284.051 124.436 282.291 125.14 280.267 125.14ZM269.443 206.32C266.539 206.32 264.471 205.264 263.239 203.152C262.007 200.952 261.963 197.388 263.107 192.46L272.875 150.616C273.315 148.68 273.359 147.184 273.007 146.128C272.743 144.984 271.951 144.412 270.631 144.412C269.047 144.412 267.287 145.6 265.351 147.976C263.503 150.264 261.391 154.664 259.015 161.176C258.663 162.32 258.047 162.892 257.167 162.892C255.847 162.892 255.495 162.1 256.111 160.516C258.047 154.444 260.071 149.692 262.183 146.26C264.383 142.828 266.583 140.408 268.783 139C270.983 137.592 273.007 136.888 274.855 136.888C277.935 136.888 280.091 137.988 281.323 140.188C282.555 142.3 282.599 145.82 281.455 150.748L271.687 192.592C271.247 194.528 271.159 196.068 271.423 197.212C271.775 198.268 272.611 198.796 273.931 198.796C275.515 198.796 277.231 197.652 279.079 195.364C281.015 192.988 283.171 188.544 285.547 182.032C285.899 180.888 286.515 180.316 287.395 180.316C288.715 180.316 289.067 181.108 288.451 182.692C286.603 188.676 284.535 193.428 282.247 196.948C280.047 200.38 277.847 202.8 275.647 204.208C273.447 205.616 271.379 206.32 269.443 206.32ZM309.054 206.188C303.598 206.188 299.286 203.944 296.118 199.456C292.95 194.88 291.366 188.72 291.366 180.976C291.366 175.256 292.29 169.756 294.138 164.476C295.986 159.196 298.406 154.488 301.398 150.352C304.478 146.216 307.866 142.96 311.562 140.584C315.346 138.12 319.13 136.888 322.914 136.888C328.37 136.888 332.682 139.132 335.85 143.62C339.018 148.108 340.602 154.268 340.602 162.1C340.602 167.82 339.678 173.32 337.83 178.6C335.982 183.88 333.518 188.588 330.438 192.724C327.446 196.86 324.058 200.16 320.274 202.624C316.578 205 312.838 206.188 309.054 206.188ZM308.79 203.02C311.606 203.02 314.334 201.656 316.974 198.928C319.702 196.2 322.166 192.592 324.366 188.104C326.566 183.616 328.326 178.644 329.646 173.188C330.966 167.644 331.626 162.1 331.626 156.556C331.626 145.556 328.766 140.056 323.046 140.056C320.318 140.056 317.59 141.42 314.862 144.148C312.134 146.788 309.67 150.352 307.47 154.84C305.358 159.328 303.642 164.344 302.322 169.888C301.002 175.344 300.342 180.844 300.342 186.388C300.342 197.476 303.158 203.02 308.79 203.02ZM347.738 203.284L360.278 150.616C360.718 148.68 360.762 147.184 360.41 146.128C360.146 144.984 359.354 144.412 358.034 144.412C356.45 144.412 354.69 145.6 352.754 147.976C350.906 150.264 348.794 154.664 346.418 161.176C346.066 162.32 345.45 162.892 344.57 162.892C343.25 162.892 342.898 162.1 343.514 160.516C345.45 154.444 347.474 149.692 349.586 146.26C351.786 142.828 353.986 140.408 356.186 139C358.386 137.592 360.41 136.888 362.258 136.888C365.162 136.888 367.23 137.988 368.462 140.188C369.694 142.3 369.738 145.82 368.594 150.748L365.294 165.004C365.206 165.62 365.338 165.972 365.69 166.06C366.042 166.148 366.35 165.928 366.614 165.4C370.046 158.272 373.346 152.64 376.514 148.504C379.682 144.28 382.674 141.288 385.49 139.528C388.306 137.768 390.858 136.888 393.146 136.888C396.402 136.888 398.778 138.208 400.274 140.848C401.77 143.488 401.77 147.536 400.274 152.992L390.242 191.272C389.626 193.736 389.582 195.584 390.11 196.816C390.638 198.048 391.606 198.664 393.014 198.664C394.774 198.664 396.49 197.52 398.162 195.232C399.922 192.856 401.726 188.412 403.574 181.9C403.838 180.932 404.41 180.448 405.29 180.448C405.994 180.448 406.39 180.712 406.478 181.24C406.654 181.768 406.654 182.384 406.478 183.088C404.806 189.072 403.002 193.78 401.066 197.212C399.13 200.556 397.15 202.888 395.126 204.208C393.19 205.528 391.21 206.188 389.186 206.188C386.018 206.188 383.642 204.868 382.058 202.228C380.474 199.588 380.386 195.496 381.794 189.952L391.958 151.672C392.926 148.24 393.058 145.864 392.354 144.544C391.738 143.224 390.814 142.564 389.582 142.564C387.646 142.564 385.446 143.796 382.982 146.26C380.518 148.636 378.01 151.936 375.458 156.16C372.906 160.296 370.398 165.004 367.934 170.284C365.47 175.564 363.226 181.064 361.202 186.784C359.266 192.504 357.682 198.092 356.45 203.548C356.186 204.516 355.57 205 354.602 205H349.19C347.958 205 347.474 204.428 347.738 203.284ZM422.25 206.188C419.346 206.188 416.266 205.748 413.01 204.868C409.842 203.988 407.422 202.888 405.75 201.568C405.134 201.04 404.87 200.248 404.958 199.192L407.862 181.9C408.038 180.756 408.566 180.184 409.446 180.184C410.414 180.184 410.898 180.8 410.898 182.032L411.162 188.368C411.338 193.384 412.526 197.08 414.726 199.456C417.014 201.744 419.786 202.888 423.042 202.888C425.858 202.888 428.278 202.008 430.302 200.248C432.326 198.4 433.338 195.716 433.338 192.196C433.338 190.172 433.03 188.324 432.414 186.652C431.798 184.892 430.83 183.044 429.51 181.108C428.19 179.084 426.386 176.664 424.098 173.848C421.106 169.976 418.862 166.676 417.366 163.948C415.958 161.132 415.254 158.228 415.254 155.236C415.254 149.692 416.97 145.248 420.402 141.904C423.922 138.56 428.366 136.888 433.734 136.888C436.11 136.888 438.398 137.24 440.598 137.944C442.886 138.648 444.778 139.704 446.274 141.112C447.066 141.728 447.33 142.52 447.066 143.488L443.37 161.176C443.106 162.32 442.578 162.892 441.786 162.892C440.994 162.892 440.51 162.276 440.334 161.044L439.938 154.708C439.586 149.428 438.882 145.644 437.826 143.356C436.858 141.068 434.79 139.924 431.622 139.924C428.806 139.924 426.518 140.892 424.758 142.828C422.998 144.764 422.118 147.096 422.118 149.824C422.118 152.728 422.91 155.412 424.494 157.876C426.078 160.252 428.234 163.288 430.962 166.984C434.57 171.736 436.99 175.52 438.222 178.336C439.542 181.152 440.202 184.012 440.202 186.916C440.202 190.612 439.366 193.912 437.694 196.816C436.11 199.72 433.954 202.008 431.226 203.68C428.498 205.352 425.506 206.188 422.25 206.188Z" fill="white"/>
</svg>
